<?xml version="1.0" encoding="UTF-8"?>
<!-- Generated by Pixelmator Pro 3.7 -->
<svg width="1767" height="1767" viewBox="0 0 1767 1767" xmlns="http://www.w3.org/2000/svg">
    <path id="Forma" fill="#000000" fill-rule="evenodd" stroke="none" d="M 1441 1642 L 1219 1642 L 1219 968 L 1437 968 C 1437 968 1566.565308 977.385132 1651 1047 C 1732.123413 1113.88501 1768.275879 1239.44043 1767 1318 C 1765.780884 1393.061646 1717.545776 1512.644043 1638 1574 C 1555.207397 1637.860352 1441 1642 1441 1642 Z M 1328.005981 1073 L 1326 1543 L 1430.313232 1543 C 1430.313232 1543 1512.582642 1537.895752 1575 1489 C 1626.068726 1448.994385 1659.668945 1372.738525 1659 1303.98291 C 1658.501343 1252.729736 1636.144043 1167.948242 1582 1125 C 1520.943848 1076.56897 1427.304199 1073 1427.304199 1073 L 1328.005981 1073 Z"/>
    <path id="path1" fill="#000000" fill-rule="evenodd" stroke="none" d="M 810 1467 L 743 1641 L 623 1641 L 891 968 L 994 968 L 1221 1512 L 1223 1642 L 1150 1641 L 1080 1466 L 810 1467 Z M 945 1112 L 846 1373 L 1047 1373 L 945 1112 Z"/>
    <path id="path2" fill="#000000" fill-rule="evenodd" stroke="none" d="M 2 1641 L 0 968 L 103 968 L 326 1225 L 547 968 L 662 968 L 661 1641 L 562 1641 L 560 1113 L 326 1379 L 105 1123 L 102 1641 L 2 1641 Z"/>
    <path id="path3" fill="#000000" fill-rule="evenodd" stroke="none" d="M 182 909 L 240 909 L 703.179993 444.830322 C 710.93158 448.775635 719.706055 451 729 451 C 740.814026 451 751.788574 447.405884 760.889893 441.251343 L 1036.844116 681.170288 C 1034.998535 686.779419 1034 692.773071 1034 699 C 1034 730.480225 1059.519775 756 1091 756 C 1122.480225 756 1148 730.480225 1148 699 C 1148 690.718628 1146.234009 682.849854 1143.057983 675.749512 L 1572.778809 234.309082 C 1579.063354 236.694214 1585.87915 238 1593 238 C 1624.480225 238 1650 212.480225 1650 181 C 1650 149.519775 1624.480225 124 1593 124 C 1561.519775 124 1536 149.519775 1536 181 C 1536 191.373169 1538.770996 201.099121 1543.613037 209.478271 L 1115 647 L 1114.516235 647.061768 C 1107.34668 643.810425 1099.384766 642 1091 642 C 1080.999512 642 1071.600586 644.575317 1063.430298 649.098999 L 783.647278 410.259888 C 785.178101 405.107178 786 399.649658 786 394 C 786 362.519775 760.480225 337 729 337 C 697.519775 337 672 362.519775 672 394 C 672 401.686523 673.521484 409.017822 676.279663 415.708862 L 182 909 Z M 1028 909 L 1605 909 L 1605 317 L 1028 909 Z M 1160 850 L 1553 851 L 1550 447 L 1160 850 Z"/>
</svg>
