<?xml version="1.0" encoding="UTF-8"?>
<!-- Generated by Pixelmator Pro 3.6.14 -->
<svg width="18" height="17" viewBox="0 0 18 17" xmlns="http://www.w3.org/2000/svg">
    <path id="Percorso" fill="#ffffff" stroke="none" d="M 16.99 1.48 L 17.049999 1.33 L 17.02 1.360001 L 16.84 1.209999 L 16.780001 1.209999 C 16.74 1.209999 16.709999 1.24 16.690001 1.299999 C 16.67 1.379999 16.66 1.43 16.66 1.450001 L 16.6 1.360001 C 16.559999 1.4 16.540001 1.440001 16.540001 1.48 C 16.540001 1.52 16.549999 1.540001 16.57 1.540001 L 16.629999 1.540001 C 16.57 1.6 16.540001 1.66 16.540001 1.719999 L 16.540001 1.809999 L 16.48 1.809999 C 16.48 1.65 16.4 1.57 16.24 1.57 C 16.219999 1.59 16.200001 1.629999 16.18 1.690001 C 16.18 1.75 16.18 1.790001 16.18 1.809999 C 16.18 1.870001 16.209999 1.9 16.27 1.9 C 16.27 1.940001 16.24 1.98 16.18 2.02 C 16.120001 2.059999 16.07 2.08 16.030001 2.08 C 15.97 2.08 15.92 2.059999 15.88 2.02 C 15.84 1.98 15.82 1.950001 15.82 1.93 L 15.67 2.08 L 15.58 1.99 L 15.67 1.93 C 15.63 1.809999 15.57 1.75 15.49 1.75 C 15.45 1.75 15.42 1.76 15.4 1.780001 C 15.38 1.82 15.35 1.84 15.31 1.84 L 15.22 1.84 L 15.13 1.93 L 15.13 2.02 L 15.04 2.110001 L 14.86 2.02 C 14.86 2.040001 14.84 2.07 14.8 2.110001 C 14.78 2.17 14.76 2.200001 14.74 2.200001 C 14.68 2.200001 14.6 2.17 14.5 2.110001 C 14.4 2.07 14.35 2.040001 14.35 2.02 C 14.27 2.059999 14.16 2.09 14.02 2.110001 C 13.88 2.129999 13.79 2.139999 13.75 2.139999 L 13.6 2.139999 L 13.48 2.049999 C 13.48 2.01 13.44 1.98 13.36 1.959999 C 13.3 1.959999 13.26 1.940001 13.24 1.9 L 13.15 2.049999 L 13.03 2.110001 C 13.03 1.93 13.1 1.799999 13.24 1.719999 C 13.2 1.66 13.16 1.629999 13.12 1.629999 L 12.97 1.719999 L 12.94 1.57 C 12.8 1.57 12.74 1.620001 12.76 1.719999 C 12.78 1.84 12.74 1.9 12.64 1.9 L 12.46 1.9 C 12.4 1.9 12.37 1.93 12.37 1.99 L 12.31 2.17 C 12.21 2.17 12.12 2.139999 12.04 2.08 C 11.96 2.02 11.9 1.99 11.86 1.99 C 11.78 1.99 11.73 2 11.71 2.02 L 11.59 2.110001 L 11.41 2.110001 C 11.35 2.049999 11.29 2.02 11.23 2.02 L 11.08 2.110001 C 11.02 2.110001 10.99 2.09 10.99 2.049999 L 10.99 1.6 L 10.78 1.6 L 10.78 2.049999 L 10.72 2.049999 C 10.72 1.99 10.7 1.93 10.66 1.870001 C 10.62 1.809999 10.58 1.780001 10.54 1.780001 C 10.42 1.780001 10.36 1.860001 10.36 2.02 L 9.91 2.049999 L 9.76 1.809999 L 9.67 1.870001 C 9.65 1.889999 9.63 1.9 9.61 1.9 L 9.34 1.959999 L 9.16 1.9 C 9.12 1.9 9.08 1.91 9.04 1.93 C 9 1.950001 8.93 1.969999 8.83 1.99 C 8.87 1.99 8.89 1.969999 8.89 1.93 L 8.83 1.84 C 8.79 1.84 8.77 1.870001 8.77 1.93 C 8.77 1.950001 8.78 1.969999 8.8 1.99 L 8.65 1.99 C 8.69 1.99 8.71 1.969999 8.71 1.93 C 8.71 1.870001 8.69 1.84 8.65 1.84 C 8.61 1.84 8.59 1.870001 8.59 1.93 C 8.59 1.969999 8.61 1.99 8.65 1.99 C 8.57 1.99 8.51 1.969999 8.47 1.93 L 8.47 1.84 C 8.45 1.84 8.43 1.83 8.41 1.809999 L 8.35 1.75 L 8.35 1.6 C 8.33 1.66 8.3 1.719999 8.26 1.780001 C 8.22 1.84 8.18 1.870001 8.14 1.870001 C 8.12 1.73 8.09 1.59 8.05 1.450001 C 8.01 1.309999 7.94 1.24 7.84 1.24 C 7.84 1.280001 7.84 1.33 7.84 1.389999 C 7.86 1.469999 7.87 1.549999 7.87 1.629999 C 7.87 1.790001 7.81 1.9 7.69 1.959999 L 7.36 1.690001 L 7.39 1.959999 L 6.58 1.959999 C 6.6 1.959999 6.61 1.940001 6.61 1.9 C 6.61 1.84 6.58 1.809999 6.52 1.809999 C 6.5 1.809999 6.49 1.84 6.49 1.9 C 6.49 1.940001 6.5 1.959999 6.52 1.959999 L 6.31 1.959999 L 6.28 1.719999 L 6.22 1.9 L 6.16 1.93 L 6.1 1.99 L 5.86 1.9 C 5.86 1.879999 5.83 1.85 5.77 1.809999 C 5.73 1.77 5.7 1.74 5.68 1.719999 C 5.62 1.76 5.59 1.85 5.59 1.99 L 4.87 2.02 L 4.9 1.93 C 4.9 1.870001 4.88 1.84 4.84 1.84 C 4.8 1.84 4.78 1.870001 4.78 1.93 L 4.78 2.02 L 4.66 2.02 L 4.66 1.959999 L 4.57 1.959999 C 4.55 1.959999 4.53 1.950001 4.51 1.93 C 4.47 1.93 4.43 1.940001 4.39 1.959999 C 4.35 2 4.32 2.02 4.3 2.02 L 4 1.959999 L 4.03 1.870001 C 3.99 1.809999 3.96 1.780001 3.94 1.780001 C 3.9 1.780001 3.88 1.809999 3.88 1.870001 C 3.88 1.91 3.89 1.93 3.91 1.93 C 3.83 1.91 3.79 1.870001 3.79 1.809999 C 3.77 1.77 3.74 1.73 3.7 1.690001 L 3.61 1.719999 L 3.64 1.959999 L 3.46 1.9 L 3.46 1.959999 C 3.46 2.059999 3.4 2.110001 3.28 2.110001 C 3.16 2.110001 3.1 2.15 3.1 2.23 L 2.92 2.32 L 3.01 2.139999 C 2.91 2.1 2.8 2.07 2.68 2.049999 C 2.54 2.049999 2.41 2.049999 2.29 2.049999 C 2.25 2.049999 2.21 2.049999 2.17 2.049999 C 2.11 2.07 2.07 2.08 2.05 2.08 L 2.14 1.99 L 1.93 2.049999 C 1.91 2.07 1.88 2.08 1.84 2.08 L 0.85 2.110001 L 0.61 1.959999 L 0.58 1.870001 C 0.46 1.23 0.32 0.799999 0.16 0.58 L 0.16 0.49 C 0.22 0.35 0.33 0.280001 0.49 0.280001 L 0.52 0.370001 C 0.58 0.370001 0.74 0.370001 1 0.370001 C 1.24 0.389999 1.39 0.4 1.45 0.4 C 1.47 0.4 1.53 0.379999 1.63 0.34 C 1.73 0.32 1.79 0.309999 1.81 0.309999 L 1.96 0.4 C 1.98 0.4 2.03 0.379999 2.11 0.34 C 2.17 0.299999 2.21 0.280001 2.23 0.280001 L 2.56 0.280001 C 2.58 0.280001 2.6 0.309999 2.62 0.370001 C 2.64 0.43 2.66 0.48 2.68 0.52 L 2.68 0.610001 C 2.74 0.450001 2.87 0.33 3.07 0.25 C 3.27 0.17 3.45 0.129999 3.61 0.129999 L 3.64 0.4 C 3.64 0.379999 3.66 0.34 3.7 0.280001 C 3.74 0.24 3.76 0.190001 3.76 0.129999 L 3.88 0.25 L 3.88 0.34 C 3.92 0.299999 4.02 0.25 4.18 0.190001 C 4.34 0.15 4.47 0.129999 4.57 0.129999 C 4.61 0.129999 4.65 0.139999 4.69 0.16 C 4.75 0.200001 4.79 0.219999 4.81 0.219999 L 4.93 0.309999 C 4.95 0.309999 4.97 0.290001 4.99 0.25 C 5.03 0.23 5.06 0.219999 5.08 0.219999 L 5.08 0.25 C 5.12 0.25 5.18 0.26 5.26 0.280001 C 5.34 0.299999 5.4 0.309999 5.44 0.309999 L 5.59 0.190001 L 6.1 0.190001 C 6.18 0.190001 6.24 0.17 6.28 0.129999 C 6.34 0.09 6.42 0.07 6.52 0.07 C 6.6 0.07 6.64 0.08 6.64 0.1 C 6.66 0.139999 6.69 0.16 6.73 0.16 L 6.97 0.16 C 7.01 0.16 7.06 0.18 7.12 0.219999 C 7.2 0.280001 7.24 0.34 7.24 0.4 C 7.34 0.360001 7.39 0.290001 7.39 0.190001 L 7.84 0.129999 L 7.87 0.219999 C 7.93 0.16 8.01 0.129999 8.11 0.129999 L 8.26 0.129999 C 8.34 0.129999 8.41 0.16 8.47 0.219999 L 8.47 0.280001 L 8.62 0.129999 L 8.83 0.370001 C 8.83 0.33 8.86 0.290001 8.92 0.25 C 9 0.23 9.05 0.209999 9.07 0.190001 L 10.03 0.190001 L 10.12 0.25 L 10.09 0.34 L 10.3 0.34 L 10.27 0.25 C 10.27 0.17 10.32 0.129999 10.42 0.129999 L 10.45 0.280001 C 10.49 0.280001 10.53 0.27 10.57 0.25 C 10.61 0.25 10.65 0.25 10.69 0.25 C 10.71 0.25 10.74 0.26 10.78 0.280001 C 10.84 0.299999 10.88 0.309999 10.9 0.309999 L 10.99 0.219999 L 11.14 0.219999 C 11.14 0.24 11.13 0.27 11.11 0.309999 C 11.09 0.35 11.08 0.389999 11.08 0.43 C 11.08 0.469999 11.09 0.5 11.11 0.52 L 11.14 0.639999 L 11.23 0.639999 C 11.25 0.620001 11.26 0.6 11.26 0.58 L 11.14 0.459999 C 11.14 0.440001 11.16 0.4 11.2 0.34 C 11.26 0.280001 11.3 0.24 11.32 0.219999 L 11.32 0.34 C 11.34 0.34 11.37 0.35 11.41 0.370001 C 11.45 0.389999 11.48 0.4 11.5 0.4 C 11.56 0.360001 11.58 0.309999 11.56 0.25 C 11.54 0.209999 11.64 0.190001 11.86 0.190001 C 12.04 0.190001 12.15 0.219999 12.19 0.280001 L 12.22 0.280001 C 12.24 0.280001 12.26 0.27 12.28 0.25 L 12.37 0.190001 L 12.43 0.280001 C 12.47 0.280001 12.52 0.26 12.58 0.219999 C 12.64 0.200001 12.69 0.190001 12.73 0.190001 C 12.79 0.25 12.89 0.280001 13.03 0.280001 C 13.07 0.280001 13.1 0.27 13.12 0.25 L 13.06 0.43 L 13.15 0.52 L 13.15 0.76 C 13.21 0.700001 13.24 0.639999 13.24 0.58 L 13.24 0.370001 C 13.24 0.309999 13.31 0.27 13.45 0.25 C 13.59 0.25 13.67 0.25 13.69 0.25 C 13.77 0.25 13.81 0.280001 13.81 0.34 L 13.9 0.25 L 14.26 0.34 L 14.53 0.34 C 14.57 0.299999 14.59 0.27 14.59 0.25 C 14.61 0.23 14.68 0.219999 14.8 0.219999 C 14.86 0.219999 14.89 0.23 14.89 0.25 C 14.89 0.290001 14.91 0.309999 14.95 0.309999 C 14.99 0.309999 15.03 0.290001 15.07 0.25 C 15.11 0.209999 15.16 0.190001 15.22 0.190001 C 15.26 0.190001 15.3 0.209999 15.34 0.25 C 15.4 0.290001 15.45 0.309999 15.49 0.309999 C 15.51 0.290001 15.53 0.26 15.55 0.219999 C 15.57 0.200001 15.59 0.190001 15.61 0.190001 L 15.64 0.280001 C 15.66 0.280001 15.68 0.280001 15.7 0.280001 C 15.72 0.299999 15.74 0.309999 15.76 0.309999 C 15.76 0.290001 15.79 0.25 15.85 0.190001 C 15.93 0.15 15.98 0.120001 16 0.1 C 16 0.16 16.030001 0.190001 16.09 0.190001 C 16.110001 0.190001 16.139999 0.17 16.18 0.129999 C 16.219999 0.110001 16.25 0.1 16.27 0.1 C 16.309999 0.1 16.34 0.129999 16.360001 0.190001 C 16.379999 0.27 16.41 0.33 16.450001 0.370001 L 16.629999 0.280001 L 16.629999 0.49 C 16.629999 0.51 16.610001 0.530001 16.57 0.549999 C 16.549999 0.57 16.540001 0.59 16.540001 0.610001 L 16.57 0.67 L 16.629999 0.67 C 16.65 0.690001 16.67 0.700001 16.690001 0.700001 L 16.870001 0.43 L 16.9 0.610001 L 17.049999 0.49 L 17.049999 0.700001 L 17.23 0.58 L 17.23 0.82 L 17.139999 0.82 L 17.08 1.120001 L 17.17 1.209999 L 17.049999 1.33 L 17.110001 1.450001 L 16.99 1.48 Z M 12.43 1.059999 C 12.43 1.120001 12.44 1.16 12.46 1.18 C 12.5 1.219999 12.52 1.280001 12.52 1.360001 L 12.52 1.42 C 12.54 1.360001 12.58 1.309999 12.64 1.27 C 12.72 1.23 12.79 1.190001 12.85 1.15 C 12.91 1.129999 12.96 1.09 13 1.030001 C 13.06 0.969999 13.09 0.860001 13.09 0.700001 C 13.07 0.66 13.02 0.610001 12.94 0.549999 C 12.88 0.49 12.83 0.459999 12.79 0.459999 C 12.75 0.48 12.72 0.540001 12.7 0.639999 C 12.68 0.76 12.67 0.860001 12.67 0.940001 L 12.49 0.969999 L 12.43 1.059999 Z M 9.19 1.030001 C 9.23 1.030001 9.3 1.02 9.4 1 C 9.5 0.98 9.57 0.959999 9.61 0.940001 L 9.79 0.940001 L 9.79 0.610001 L 9.52 0.879999 L 9.34 0.879999 L 9.28 0.790001 C 9.16 0.790001 9.1 0.82 9.1 0.879999 L 9.19 1.030001 Z M 10.63 0.91 C 10.71 0.83 10.78 0.76 10.84 0.700001 C 10.9 0.66 10.93 0.6 10.93 0.52 L 10.63 0.549999 L 10.63 0.49 C 10.61 0.49 10.58 0.5 10.54 0.52 C 10.5 0.540001 10.48 0.559999 10.48 0.58 L 10.48 0.76 L 10.63 0.91 Z M 15.37 1.42 L 15.4 1.42 C 15.44 1.42 15.46 1.450001 15.46 1.51 L 15.43 1.540001 L 15.52 1.48 L 15.19 1.24 C 15.15 1.280001 15.12 1.34 15.1 1.42 C 15.1 1.5 15.1 1.559999 15.1 1.6 L 15.31 1.6 L 15.31 1.51 L 15.37 1.42 Z M 11.71 0.73 C 11.71 0.790001 11.74 0.82 11.8 0.82 L 11.8 0.549999 L 11.71 0.549999 L 11.77 0.4 L 11.5 0.639999 L 11.71 0.73 Z M 14.41 1.33 C 14.47 1.41 14.53 1.450001 14.59 1.450001 L 14.59 1.09 C 14.47 1.129999 14.41 1.209999 14.41 1.33 Z M 9.7 1.120001 C 9.66 1.120001 9.63 1.129999 9.61 1.15 L 9.55 1.209999 L 9.55 1.389999 C 9.67 1.389999 9.73 1.33 9.73 1.209999 L 9.7 1.120001 Z M 12.46 0.610001 C 12.44 0.610001 12.43 0.65 12.43 0.73 C 12.43 0.790001 12.44 0.82 12.46 0.82 L 12.49 0.790001 C 12.49 0.83 12.52 0.85 12.58 0.85 C 12.62 0.85 12.64 0.83 12.64 0.790001 C 12.64 0.73 12.62 0.700001 12.58 0.700001 L 12.55 0.700001 L 12.46 0.610001 Z M 6.88 1.27 C 6.88 1.23 6.91 1.209999 6.97 1.209999 L 6.97 1 L 6.85 0.969999 L 6.88 1.09 C 6.82 1.15 6.79 1.190001 6.79 1.209999 L 6.88 1.27 Z M 5.62 0.790001 C 5.58 0.790001 5.56 0.82 5.56 0.879999 C 5.56 0.940001 5.58 0.969999 5.62 0.969999 L 5.65 0.969999 C 5.65 1.01 5.68 1.030001 5.74 1.030001 C 5.76 1.030001 5.77 1.01 5.77 0.969999 C 5.77 0.91 5.75 0.879999 5.71 0.879999 L 5.68 0.879999 L 5.62 0.790001 Z M 7.81 0.82 C 7.77 0.82 7.75 0.85 7.75 0.91 C 7.75 0.969999 7.77 1 7.81 1 L 7.84 1 C 7.84 1.040001 7.86 1.059999 7.9 1.059999 C 7.94 1.059999 7.96 1.040001 7.96 1 C 7.96 0.940001 7.94 0.91 7.9 0.91 L 7.87 0.91 L 7.81 0.82 Z M 16.209999 1.120001 L 16.33 1.120001 L 16.33 0.969999 L 16.24 0.879999 C 16.219999 0.860001 16.200001 0.85 16.18 0.85 L 16.209999 1.120001 Z M 14.77 1.959999 C 14.81 1.940001 14.83 1.9 14.83 1.84 C 14.85 1.799999 14.86 1.77 14.86 1.75 L 14.8 1.629999 L 14.74 1.6 L 14.77 1.959999 Z M 13.9 0.49 C 13.88 0.49 13.87 0.52 13.87 0.58 C 13.87 0.639999 13.89 0.67 13.93 0.67 C 13.99 0.67 14.02 0.639999 14.02 0.58 C 14.02 0.52 13.98 0.49 13.9 0.49 Z M 6.22 0.52 C 6.1 0.52 6.04 0.59 6.04 0.73 L 6.16 0.700001 L 6.22 0.52 Z M 10 1.719999 L 10 1.209999 L 9.91 1.540001 L 10 1.719999 Z M 14.74 1.18 C 14.8 1.120001 14.83 1.059999 14.83 1 L 14.71 0.82 L 14.74 1.18 Z M 3.37 0.25 C 3.31 0.25 3.28 0.280001 3.28 0.34 C 3.28 0.4 3.31 0.43 3.37 0.43 C 3.41 0.43 3.43 0.4 3.43 0.34 L 3.37 0.25 Z M 2.74 1.450001 C 2.68 1.450001 2.65 1.48 2.65 1.540001 C 2.65 1.6 2.68 1.629999 2.74 1.629999 C 2.78 1.629999 2.8 1.6 2.8 1.540001 L 2.74 1.450001 Z M 8.56 1.48 C 8.5 1.48 8.47 1.51 8.47 1.57 C 8.47 1.629999 8.5 1.66 8.56 1.66 C 8.6 1.66 8.62 1.629999 8.62 1.57 L 8.56 1.48 Z M 1.72 2.17 C 1.76 2.17 1.78 2.200001 1.78 2.26 C 1.78 2.32 1.76 2.35 1.72 2.35 C 1.66 2.35 1.63 2.309999 1.63 2.23 L 1.72 2.17 Z M 12.55 0.280001 C 12.49 0.280001 12.46 0.309999 12.46 0.370001 C 12.46 0.43 12.49 0.459999 12.55 0.459999 C 12.59 0.459999 12.61 0.43 12.61 0.370001 L 12.55 0.280001 Z M 8.05 0.219999 C 7.99 0.219999 7.96 0.25 7.96 0.309999 C 7.96 0.370001 7.99 0.4 8.05 0.4 C 8.09 0.4 8.11 0.370001 8.11 0.309999 L 8.05 0.219999 Z M 16.27 0.190001 C 16.209999 0.190001 16.18 0.219999 16.18 0.280001 C 16.18 0.34 16.209999 0.370001 16.27 0.370001 C 16.309999 0.370001 16.33 0.34 16.33 0.280001 L 16.27 0.190001 Z M 11.65 1.84 C 11.61 1.84 11.59 1.870001 11.59 1.93 C 11.59 1.99 11.61 2.02 11.65 2.02 C 11.71 2.02 11.74 1.99 11.74 1.93 L 11.65 1.84 Z M 13.96 1.27 C 13.92 1.27 13.9 1.299999 13.9 1.360001 C 13.9 1.42 13.92 1.450001 13.96 1.450001 C 14.02 1.450001 14.05 1.42 14.05 1.360001 L 13.96 1.27 Z M 7.96 0.639999 C 7.92 0.639999 7.9 0.67 7.9 0.73 C 7.9 0.790001 7.92 0.82 7.96 0.82 C 8.02 0.82 8.05 0.790001 8.05 0.73 L 7.96 0.639999 Z M 3.13 1.030001 C 3.09 1.030001 3.07 1.059999 3.07 1.120001 C 3.07 1.18 3.1 1.209999 3.16 1.209999 C 3.2 1.209999 3.22 1.18 3.22 1.120001 L 3.13 1.030001 Z M 16.629999 1.780001 C 16.67 1.780001 16.690001 1.82 16.690001 1.9 C 16.690001 1.940001 16.67 1.959999 16.629999 1.959999 C 16.57 1.959999 16.540001 1.940001 16.540001 1.9 C 16.540001 1.860001 16.57 1.82 16.629999 1.780001 Z M 4.06 0.58 L 4.15 0.4 L 3.88 0.49 L 4.06 0.58 Z M 16.030001 1.120001 C 15.99 1.120001 15.97 1.15 15.97 1.209999 C 15.97 1.27 16 1.299999 16.059999 1.299999 C 16.1 1.299999 16.120001 1.27 16.120001 1.209999 L 16.030001 1.120001 Z M 5.44 0.879999 C 5.4 0.879999 5.38 0.91 5.38 0.969999 C 5.38 1.030001 5.41 1.059999 5.47 1.059999 C 5.51 1.059999 5.53 1.030001 5.53 0.969999 L 5.44 0.879999 Z M 2.71 1.120001 C 2.67 1.120001 2.65 1.15 2.65 1.209999 C 2.65 1.27 2.67 1.299999 2.71 1.299999 C 2.77 1.299999 2.8 1.27 2.8 1.209999 L 2.71 1.120001 Z M 2.65 1.809999 C 2.61 1.809999 2.59 1.84 2.59 1.9 C 2.59 1.959999 2.6 1.99 2.62 1.99 C 2.7 1.99 2.74 1.959999 2.74 1.9 L 2.65 1.809999 Z M 2.08 1.299999 C 2.04 1.299999 2.02 1.34 2.02 1.42 C 2.02 1.459999 2.05 1.48 2.11 1.48 C 2.15 1.48 2.17 1.450001 2.17 1.389999 L 2.08 1.299999 Z M 12.22 1.33 C 12.2 1.33 12.19 1.360001 12.19 1.42 C 12.19 1.459999 12.21 1.48 12.25 1.48 C 12.31 1.48 12.34 1.459999 12.34 1.42 C 12.34 1.360001 12.3 1.33 12.22 1.33 Z M 15.97 1.15 C 15.97 1.129999 15.98 1.08 16 1 C 16.02 0.940001 16.030001 0.889999 16.030001 0.85 C 16.030001 0.83 16.02 0.809999 16 0.790001 L 15.94 0.73 L 15.97 1.15 Z M 13.39 1.629999 C 13.33 1.629999 13.3 1.66 13.3 1.719999 L 13.39 1.809999 C 13.43 1.809999 13.45 1.780001 13.45 1.719999 L 13.39 1.629999 Z M 4.24 0.91 C 4.2 0.91 4.18 0.940001 4.18 1 C 4.18 1.059999 4.21 1.09 4.27 1.09 C 4.29 1.09 4.3 1.059999 4.3 1 L 4.24 0.91 Z M 9.4 1.389999 C 9.36 1.389999 9.34 1.42 9.34 1.48 C 9.34 1.540001 9.36 1.57 9.4 1.57 C 9.44 1.57 9.46 1.540001 9.46 1.48 L 9.4 1.389999 Z M 9.49 0.280001 C 9.45 0.280001 9.43 0.309999 9.43 0.370001 C 9.43 0.43 9.45 0.459999 9.49 0.459999 C 9.53 0.459999 9.55 0.43 9.55 0.370001 L 9.49 0.280001 Z M 8.92 0.549999 C 8.86 0.549999 8.83 0.57 8.83 0.610001 C 8.83 0.67 8.86 0.700001 8.92 0.700001 C 8.96 0.700001 8.98 0.68 8.98 0.639999 L 8.92 0.549999 Z M 5.2 0.790001 C 5.16 0.790001 5.14 0.82 5.14 0.879999 C 5.14 0.940001 5.16 0.969999 5.2 0.969999 C 5.24 0.969999 5.26 0.940001 5.26 0.879999 L 5.2 0.790001 Z M 12.07 0.969999 C 12.03 0.969999 12.01 1 12.01 1.059999 C 12.01 1.120001 12.03 1.15 12.07 1.15 C 12.11 1.15 12.13 1.120001 12.13 1.059999 L 12.07 0.969999 Z M 15.22 0.219999 C 15.18 0.219999 15.16 0.25 15.16 0.309999 C 15.16 0.370001 15.18 0.4 15.22 0.4 C 15.26 0.4 15.28 0.370001 15.28 0.309999 L 15.22 0.219999 Z M 16.15 1.389999 C 16.110001 1.389999 16.09 1.42 16.09 1.48 C 16.09 1.540001 16.110001 1.57 16.15 1.57 C 16.190001 1.57 16.209999 1.540001 16.209999 1.48 L 16.15 1.389999 Z M 7.24 0.07 C 7.28 0.07 7.3 0.1 7.3 0.16 C 7.3 0.219999 7.28 0.25 7.24 0.25 C 7.2 0.25 7.18 0.219999 7.18 0.16 L 7.24 0.07 Z M 12.88 1.9 C 12.92 1.9 12.94 1.93 12.94 1.99 C 12.94 2.049999 12.92 2.08 12.88 2.08 C 12.84 2.08 12.82 2.049999 12.82 1.99 L 12.88 1.9 Z M 3.34 1.6 C 3.3 1.6 3.28 1.629999 3.28 1.690001 C 3.28 1.75 3.3 1.780001 3.34 1.780001 C 3.38 1.780001 3.4 1.75 3.4 1.690001 L 3.34 1.6 Z M 11.14 1.870001 C 11.1 1.870001 11.08 1.9 11.08 1.959999 C 11.08 2 11.1 2.02 11.14 2.02 C 11.2 2.02 11.23 2 11.23 1.959999 L 11.14 1.870001 Z M 6.88 1.450001 C 6.84 1.450001 6.82 1.48 6.82 1.540001 C 6.82 1.58 6.84 1.6 6.88 1.6 C 6.94 1.6 6.97 1.58 6.97 1.540001 L 6.88 1.450001 Z M 3.01 0.370001 C 2.95 0.370001 2.92 0.4 2.92 0.459999 L 2.95 0.49 C 2.95 0.51 2.97 0.52 3.01 0.52 C 3.05 0.52 3.07 0.51 3.07 0.49 L 3.07 0.459999 L 3.01 0.370001 Z M 5.95 1.48 C 5.89 1.48 5.86 1.51 5.86 1.57 C 5.86 1.610001 5.89 1.629999 5.95 1.629999 C 5.99 1.629999 6.01 1.610001 6.01 1.57 L 5.95 1.48 Z M 14.56 0.67 C 14.5 0.67 14.47 0.700001 14.47 0.76 C 14.47 0.799999 14.5 0.82 14.56 0.82 C 14.6 0.82 14.62 0.799999 14.62 0.76 L 14.56 0.67 Z M 10.03 1.809999 C 9.97 1.809999 9.94 1.84 9.94 1.9 C 9.94 1.940001 9.97 1.959999 10.03 1.959999 C 10.07 1.959999 10.09 1.940001 10.09 1.9 L 10.03 1.809999 Z M 5.68 1.48 C 5.62 1.48 5.59 1.51 5.59 1.57 C 5.59 1.610001 5.62 1.629999 5.68 1.629999 C 5.72 1.629999 5.74 1.610001 5.74 1.57 L 5.68 1.48 Z M 14.23 1.360001 C 14.19 1.360001 14.17 1.389999 14.17 1.450001 L 14.2 1.51 C 14.28 1.51 14.32 1.48 14.32 1.42 L 14.23 1.360001 Z M 1.78 1.84 C 1.74 1.84 1.72 1.870001 1.72 1.93 C 1.72 1.969999 1.74 1.99 1.78 1.99 C 1.84 1.99 1.87 1.969999 1.87 1.93 L 1.78 1.84 Z M 1.99 1.059999 C 1.95 1.059999 1.93 1.09 1.93 1.15 C 1.93 1.190001 1.95 1.209999 1.99 1.209999 C 2.05 1.209999 2.08 1.190001 2.08 1.15 L 1.99 1.059999 Z M 5.68 0.549999 C 5.64 0.549999 5.62 0.57 5.62 0.610001 C 5.62 0.67 5.65 0.700001 5.71 0.700001 C 5.75 0.700001 5.77 0.68 5.77 0.639999 L 5.68 0.549999 Z M 16.360001 1.9 C 16.4 1.9 16.42 1.93 16.42 1.99 C 16.42 2.030001 16.4 2.049999 16.360001 2.049999 C 16.299999 2.049999 16.27 2.030001 16.27 1.99 L 16.360001 1.9 Z M 15.1 1.059999 C 15.06 1.059999 15.04 1.1 15.04 1.18 C 15.04 1.219999 15.06 1.24 15.1 1.24 C 15.14 1.24 15.16 1.219999 15.16 1.18 L 15.1 1.059999 Z M 15.52 0.790001 C 15.48 0.790001 15.46 0.82 15.46 0.879999 C 15.46 0.940001 15.49 0.969999 15.55 0.969999 L 15.58 0.940001 L 15.52 0.790001 Z M 1.72 0.4 C 1.66 0.4 1.63 0.42 1.63 0.459999 C 1.63 0.52 1.66 0.549999 1.72 0.549999 C 1.76 0.549999 1.76 0.5 1.72 0.4 Z M 13.09 1.030001 C 13.05 1.07 13.03 1.110001 13.03 1.15 C 13.03 1.190001 13.05 1.209999 13.09 1.209999 C 13.13 1.209999 13.15 1.18 13.15 1.120001 L 13.09 1.030001 Z M 14.62 1.959999 C 14.56 1.959999 14.53 1.98 14.53 2.02 C 14.53 2.08 14.57 2.110001 14.65 2.110001 C 14.67 2.110001 14.66 2.059999 14.62 1.959999 Z M 15.7 1.57 C 15.68 1.57 15.67 1.6 15.67 1.66 C 15.67 1.719999 15.69 1.75 15.73 1.75 C 15.77 1.75 15.79 1.73 15.79 1.690001 L 15.7 1.57 Z M 5.23 1.51 C 5.19 1.51 5.17 1.540001 5.17 1.6 L 5.23 1.66 C 5.25 1.66 5.27 1.65 5.29 1.629999 L 5.32 1.6 L 5.23 1.51 Z M 0.58 0.43 C 0.56 0.43 0.55 0.450001 0.55 0.49 C 0.55 0.549999 0.56 0.58 0.58 0.58 C 0.64 0.58 0.67 0.549999 0.67 0.49 L 0.58 0.43 Z M 9.25 0.459999 C 9.21 0.459999 9.19 0.49 9.19 0.549999 C 9.19 0.59 9.22 0.610001 9.28 0.610001 C 9.3 0.610001 9.31 0.59 9.31 0.549999 L 9.25 0.459999 Z M 15.91 1.66 C 15.87 1.66 15.85 1.690001 15.85 1.75 C 15.85 1.790001 15.87 1.809999 15.91 1.809999 C 15.95 1.809999 15.97 1.790001 15.97 1.75 L 15.91 1.66 Z M 15.25 1 C 15.21 1 15.19 1.030001 15.19 1.09 C 15.19 1.129999 15.21 1.15 15.25 1.15 C 15.29 1.15 15.31 1.129999 15.31 1.09 L 15.25 1 Z M 14.38 0.67 C 14.34 0.67 14.32 0.700001 14.32 0.76 C 14.32 0.799999 14.34 0.82 14.38 0.82 C 14.42 0.82 14.44 0.799999 14.44 0.76 L 14.38 0.67 Z M 16.42 1.389999 L 16.6 1.27 L 16.48 1.209999 L 16.42 1.389999 Z M 14.2 0.67 C 14.16 0.67 14.14 0.700001 14.14 0.76 C 14.14 0.799999 14.16 0.82 14.2 0.82 C 14.24 0.82 14.26 0.799999 14.26 0.76 L 14.2 0.67 Z M 13.54 1.719999 C 13.52 1.719999 13.51 1.75 13.51 1.809999 C 13.51 1.85 13.53 1.870001 13.57 1.870001 C 13.61 1.870001 13.63 1.85 13.63 1.809999 L 13.54 1.719999 Z M 14.11 0.43 C 14.05 0.43 14.02 0.450001 14.02 0.49 L 14.11 0.58 C 14.15 0.58 14.15 0.530001 14.11 0.43 Z M 9.67 0.459999 C 9.63 0.459999 9.61 0.48 9.61 0.52 C 9.61 0.58 9.64 0.610001 9.7 0.610001 C 9.72 0.610001 9.71 0.559999 9.67 0.459999 Z M 8.32 1.84 L 8.35 1.93 L 8.32 1.99 C 8.26 1.99 8.23 1.969999 8.23 1.93 L 8.32 1.84 Z M 9.49 1.57 C 9.45 1.57 9.43 1.59 9.43 1.629999 C 9.43 1.690001 9.45 1.719999 9.49 1.719999 C 9.53 1.719999 9.53 1.67 9.49 1.57 Z M 5.14 1.15 C 5.1 1.15 5.08 1.17 5.08 1.209999 C 5.08 1.27 5.1 1.299999 5.14 1.299999 C 5.18 1.299999 5.18 1.25 5.14 1.15 Z M 3.85 1.540001 L 3.85 1.51 C 3.85 1.49 3.82 1.48 3.76 1.48 C 3.72 1.48 3.7 1.5 3.7 1.540001 C 3.7 1.559999 3.72 1.57 3.76 1.57 L 3.85 1.540001 Z M 14.23 1.030001 C 14.19 1.030001 14.17 1.059999 14.17 1.120001 C 14.17 1.16 14.19 1.18 14.23 1.18 C 14.27 1.18 14.27 1.129999 14.23 1.030001 Z M 13.81 1.690001 L 13.78 1.809999 C 13.78 1.85 13.79 1.870001 13.81 1.870001 C 13.85 1.870001 13.87 1.84 13.87 1.780001 L 13.81 1.690001 Z M 10.18 1.389999 C 10.14 1.389999 10.12 1.42 10.12 1.48 C 10.12 1.52 10.14 1.540001 10.18 1.540001 C 10.22 1.540001 10.22 1.49 10.18 1.389999 Z M 4 0.76 C 3.96 0.76 3.94 0.780001 3.94 0.82 C 3.94 0.879999 3.96 0.91 4 0.91 C 4.04 0.91 4.04 0.860001 4 0.76 Z M 13.75 0.43 C 13.71 0.43 13.69 0.450001 13.69 0.49 C 13.73 0.57 13.75 0.6 13.75 0.58 C 13.79 0.58 13.79 0.530001 13.75 0.43 Z M 4.6 0.4 C 4.56 0.4 4.54 0.43 4.54 0.49 C 4.54 0.549999 4.56 0.58 4.6 0.58 L 4.6 0.4 Z M 12.37 1.57 C 12.33 1.57 12.31 1.6 12.31 1.66 C 12.31 1.719999 12.33 1.75 12.37 1.75 L 12.37 1.57 Z M 13.75 0.67 C 13.73 0.67 13.72 0.700001 13.72 0.76 C 13.72 0.799999 13.73 0.82 13.75 0.82 C 13.79 0.82 13.81 0.799999 13.81 0.76 L 13.75 0.67 Z M 16.9 1.030001 L 16.99 0.85 L 16.9 0.85 L 16.9 1.030001 Z M 7.54 1.09 L 7.51 1.18 L 7.54 1.24 C 7.58 1.24 7.6 1.219999 7.6 1.18 L 7.54 1.09 Z M 12.07 1.66 L 12.04 1.690001 C 12.04 1.709999 12.05 1.73 12.07 1.75 L 12.07 1.84 C 12.11 1.84 12.13 1.82 12.13 1.780001 C 12.11 1.76 12.09 1.719999 12.07 1.66 Z M 14.89 0.610001 C 14.89 0.67 14.92 0.709999 14.98 0.73 C 15 0.709999 15.01 0.690001 15.01 0.67 L 14.89 0.610001 Z M 7.54 0.67 L 7.6 0.58 L 7.51 0.49 L 7.54 0.67 Z M 10.06 0.610001 C 10 0.59 9.96 0.559999 9.94 0.52 L 9.97 0.67 L 10.06 0.610001 Z M 3.4 1.09 L 3.46 0.969999 L 3.37 0.940001 L 3.4 1.09 Z M 9.04 1.299999 C 9 1.299999 8.98 1.32 8.98 1.360001 L 9.04 1.42 L 9.04 1.299999 Z M 8.77 1.299999 C 8.77 1.34 8.78 1.389999 8.8 1.450001 C 8.84 1.51 8.87 1.549999 8.89 1.57 L 8.77 1.299999 Z M 15.16 0.549999 C 15.12 0.549999 15.1 0.57 15.1 0.610001 C 15.12 0.629999 15.14 0.639999 15.16 0.639999 L 15.16 0.549999 Z M 16 0.370001 L 15.97 0.309999 L 15.91 0.370001 C 15.91 0.389999 15.94 0.389999 16 0.370001 Z M 16.48 0.52 C 16.459999 0.5 16.440001 0.49 16.42 0.49 L 16.389999 0.58 L 16.48 0.52 Z M 5.77 0.280001 L 5.74 0.309999 C 5.74 0.35 5.75 0.370001 5.77 0.370001 C 5.81 0.370001 5.81 0.34 5.77 0.280001 Z M 14.59 1.6 L 14.56 1.629999 C 14.56 1.67 14.57 1.690001 14.59 1.690001 C 14.61 1.690001 14.61 1.66 14.59 1.6 Z M 7.21 1.27 L 7.18 1.299999 C 7.18 1.34 7.19 1.360001 7.21 1.360001 C 7.23 1.360001 7.23 1.33 7.21 1.27 Z M 15.67 1.120001 L 15.67 1.030001 L 15.61 1.030001 L 15.67 1.120001 Z M 13.42 0.85 L 13.39 0.879999 C 13.39 0.92 13.41 0.940001 13.45 0.940001 L 13.42 0.85 Z M 11.29 1.360001 C 11.29 1.32 11.27 1.299999 11.23 1.299999 L 11.2 1.33 L 11.29 1.360001 Z M 3.79 0.790001 L 3.79 0.73 C 3.75 0.73 3.73 0.74 3.73 0.76 L 3.79 0.790001 Z M 11.23 1.51 C 11.19 1.51 11.17 1.540001 11.17 1.6 L 11.23 1.51 Z M 0.85 0.459999 C 0.83 0.48 0.82 0.5 0.82 0.52 C 0.82 0.559999 0.83 0.58 0.85 0.58 L 0.85 0.459999 Z M 14.02 0.76 L 13.99 0.73 C 13.95 0.73 13.93 0.74 13.93 0.76 L 14.02 0.76 Z M 6.13 0.43 L 6.1 0.4 L 6.04 0.459999 L 6.13 0.43 Z M 12.55 0.700001 C 12.51 0.74 12.49 0.77 12.49 0.790001 L 12.55 0.700001 Z M 10.18 1.6 C 10.16 1.620001 10.15 1.639999 10.15 1.66 L 10.15 1.719999 L 10.18 1.6 Z M 2.8 1.030001 C 2.8 1.01 2.77 1 2.71 1 L 2.8 1.030001 Z M 1.39 0.879999 L 1.3 0.879999 C 1.3 0.92 1.33 0.92 1.39 0.879999 Z M 7.87 0.91 C 7.85 0.93 7.84 0.959999 7.84 1 L 7.87 0.91 Z M 5.68 0.879999 C 5.66 0.9 5.65 0.93 5.65 0.969999 L 5.68 0.879999 Z M 4 1.959999 L 3.97 1.959999 C 3.93 1.959999 3.91 1.950001 3.91 1.93 L 4 1.959999 Z M 5.89 0.700001 C 5.87 0.700001 5.86 0.719999 5.86 0.76 L 5.89 0.700001 Z M 13.21 1.360001 C 13.19 1.34 13.17 1.33 13.15 1.33 L 13.21 1.360001 Z M 2.71 0.790001 C 2.67 0.790001 2.65 0.799999 2.65 0.82 L 2.71 0.790001 Z M 7.06 1.780001 L 7.03 1.75 C 6.99 1.75 7 1.76 7.06 1.780001 Z"/>
    <path id="path1" fill="#ffffff" stroke="none" d="M 16.99 8.48 L 17.049999 8.33 L 17.02 8.360001 L 16.84 8.209999 L 16.780001 8.209999 C 16.74 8.209999 16.709999 8.24 16.690001 8.299999 C 16.67 8.379999 16.66 8.43 16.66 8.450001 L 16.6 8.360001 C 16.559999 8.4 16.540001 8.440001 16.540001 8.48 C 16.540001 8.52 16.549999 8.540001 16.57 8.540001 L 16.629999 8.540001 C 16.57 8.6 16.540001 8.66 16.540001 8.719999 L 16.540001 8.809999 L 16.48 8.809999 C 16.48 8.65 16.4 8.57 16.24 8.57 C 16.219999 8.59 16.200001 8.629999 16.18 8.690001 C 16.18 8.75 16.18 8.790001 16.18 8.809999 C 16.18 8.870001 16.209999 8.9 16.27 8.9 C 16.27 8.940001 16.24 8.98 16.18 9.02 C 16.120001 9.059999 16.07 9.08 16.030001 9.08 C 15.97 9.08 15.92 9.059999 15.88 9.02 C 15.84 8.98 15.82 8.950001 15.82 8.93 L 15.67 9.08 L 15.58 8.99 L 15.67 8.93 C 15.63 8.809999 15.57 8.75 15.49 8.75 C 15.45 8.75 15.42 8.76 15.4 8.780001 C 15.38 8.82 15.35 8.84 15.31 8.84 L 15.22 8.84 L 15.13 8.93 L 15.13 9.02 L 15.04 9.110001 L 14.86 9.02 C 14.86 9.040001 14.84 9.07 14.8 9.110001 C 14.78 9.17 14.76 9.200001 14.74 9.200001 C 14.68 9.200001 14.6 9.17 14.5 9.110001 C 14.4 9.07 14.35 9.040001 14.35 9.02 C 14.27 9.059999 14.16 9.09 14.02 9.110001 C 13.88 9.129999 13.79 9.139999 13.75 9.139999 L 13.6 9.139999 L 13.48 9.049999 C 13.48 9.01 13.44 8.98 13.36 8.959999 C 13.3 8.959999 13.26 8.940001 13.24 8.9 L 13.15 9.049999 L 13.03 9.110001 C 13.03 8.93 13.1 8.799999 13.24 8.719999 C 13.2 8.66 13.16 8.629999 13.12 8.629999 L 12.97 8.719999 L 12.94 8.57 C 12.8 8.57 12.74 8.620001 12.76 8.719999 C 12.78 8.84 12.74 8.9 12.64 8.9 L 12.46 8.9 C 12.4 8.9 12.37 8.93 12.37 8.99 L 12.31 9.17 C 12.21 9.17 12.12 9.139999 12.04 9.08 C 11.96 9.02 11.9 8.99 11.86 8.99 C 11.78 8.99 11.73 9 11.71 9.02 L 11.59 9.110001 L 11.41 9.110001 C 11.35 9.049999 11.29 9.02 11.23 9.02 L 11.08 9.110001 C 11.02 9.110001 10.99 9.09 10.99 9.049999 L 10.99 8.6 L 10.78 8.6 L 10.78 9.049999 L 10.72 9.049999 C 10.72 8.99 10.7 8.93 10.66 8.870001 C 10.62 8.809999 10.58 8.780001 10.54 8.780001 C 10.42 8.780001 10.36 8.860001 10.36 9.02 L 9.91 9.049999 L 9.76 8.809999 L 9.67 8.870001 C 9.65 8.889999 9.63 8.9 9.61 8.9 L 9.34 8.959999 L 9.16 8.9 C 9.12 8.9 9.08 8.91 9.04 8.93 C 9 8.950001 8.93 8.969999 8.83 8.99 C 8.87 8.99 8.89 8.969999 8.89 8.93 L 8.83 8.84 C 8.79 8.84 8.77 8.870001 8.77 8.93 C 8.77 8.950001 8.78 8.969999 8.8 8.99 L 8.65 8.99 C 8.69 8.99 8.71 8.969999 8.71 8.93 C 8.71 8.870001 8.69 8.84 8.65 8.84 C 8.61 8.84 8.59 8.870001 8.59 8.93 C 8.59 8.969999 8.61 8.99 8.65 8.99 C 8.57 8.99 8.51 8.969999 8.47 8.93 L 8.47 8.84 C 8.45 8.84 8.43 8.83 8.41 8.809999 L 8.35 8.75 L 8.35 8.6 C 8.33 8.66 8.3 8.719999 8.26 8.780001 C 8.22 8.84 8.18 8.870001 8.14 8.870001 C 8.12 8.73 8.09 8.59 8.05 8.450001 C 8.01 8.309999 7.94 8.24 7.84 8.24 C 7.84 8.280001 7.84 8.33 7.84 8.389999 C 7.86 8.469999 7.87 8.549999 7.87 8.629999 C 7.87 8.790001 7.81 8.9 7.69 8.959999 L 7.36 8.690001 L 7.39 8.959999 L 6.58 8.959999 C 6.6 8.959999 6.61 8.940001 6.61 8.9 C 6.61 8.84 6.58 8.809999 6.52 8.809999 C 6.5 8.809999 6.49 8.84 6.49 8.9 C 6.49 8.940001 6.5 8.959999 6.52 8.959999 L 6.31 8.959999 L 6.28 8.719999 L 6.22 8.9 L 6.16 8.93 L 6.1 8.99 L 5.86 8.9 C 5.86 8.879999 5.83 8.85 5.77 8.809999 C 5.73 8.77 5.7 8.74 5.68 8.719999 C 5.62 8.76 5.59 8.85 5.59 8.99 L 4.87 9.02 L 4.9 8.93 C 4.9 8.870001 4.88 8.84 4.84 8.84 C 4.8 8.84 4.78 8.870001 4.78 8.93 L 4.78 9.02 L 4.66 9.02 L 4.66 8.959999 L 4.57 8.959999 C 4.55 8.959999 4.53 8.950001 4.51 8.93 C 4.47 8.93 4.43 8.940001 4.39 8.959999 C 4.35 9 4.32 9.02 4.3 9.02 L 4 8.959999 L 4.03 8.870001 C 3.99 8.809999 3.96 8.780001 3.94 8.780001 C 3.9 8.780001 3.88 8.809999 3.88 8.870001 C 3.88 8.91 3.89 8.93 3.91 8.93 C 3.83 8.91 3.79 8.870001 3.79 8.809999 C 3.77 8.77 3.74 8.73 3.7 8.690001 L 3.61 8.719999 L 3.64 8.959999 L 3.46 8.9 L 3.46 8.959999 C 3.46 9.059999 3.4 9.110001 3.28 9.110001 C 3.16 9.110001 3.1 9.15 3.1 9.23 L 2.92 9.32 L 3.01 9.139999 C 2.91 9.1 2.8 9.07 2.68 9.049999 C 2.54 9.049999 2.41 9.049999 2.29 9.049999 C 2.25 9.049999 2.21 9.049999 2.17 9.049999 C 2.11 9.07 2.07 9.08 2.05 9.08 L 2.14 8.99 L 1.93 9.049999 C 1.91 9.07 1.88 9.08 1.84 9.08 L 0.85 9.110001 L 0.61 8.959999 L 0.58 8.870001 C 0.46 8.23 0.32 7.799999 0.16 7.58 L 0.16 7.49 C 0.22 7.35 0.33 7.280001 0.49 7.280001 L 0.52 7.370001 C 0.58 7.370001 0.74 7.370001 1 7.370001 C 1.24 7.389999 1.39 7.4 1.45 7.4 C 1.47 7.4 1.53 7.379999 1.63 7.34 C 1.73 7.32 1.79 7.309999 1.81 7.309999 L 1.96 7.4 C 1.98 7.4 2.03 7.379999 2.11 7.34 C 2.17 7.299999 2.21 7.280001 2.23 7.280001 L 2.56 7.280001 C 2.58 7.280001 2.6 7.309999 2.62 7.370001 C 2.64 7.43 2.66 7.48 2.68 7.52 L 2.68 7.610001 C 2.74 7.450001 2.87 7.33 3.07 7.25 C 3.27 7.17 3.45 7.129999 3.61 7.129999 L 3.64 7.4 C 3.64 7.379999 3.66 7.34 3.7 7.280001 C 3.74 7.24 3.76 7.190001 3.76 7.129999 L 3.88 7.25 L 3.88 7.34 C 3.92 7.299999 4.02 7.25 4.18 7.190001 C 4.34 7.15 4.47 7.129999 4.57 7.129999 C 4.61 7.129999 4.65 7.139999 4.69 7.16 C 4.75 7.200001 4.79 7.219999 4.81 7.219999 L 4.93 7.309999 C 4.95 7.309999 4.97 7.290001 4.99 7.25 C 5.03 7.23 5.06 7.219999 5.08 7.219999 L 5.08 7.25 C 5.12 7.25 5.18 7.26 5.26 7.280001 C 5.34 7.299999 5.4 7.309999 5.44 7.309999 L 5.59 7.190001 L 6.1 7.190001 C 6.18 7.190001 6.24 7.17 6.28 7.129999 C 6.34 7.09 6.42 7.07 6.52 7.07 C 6.6 7.07 6.64 7.08 6.64 7.1 C 6.66 7.139999 6.69 7.16 6.73 7.16 L 6.97 7.16 C 7.01 7.16 7.06 7.18 7.12 7.219999 C 7.2 7.280001 7.24 7.34 7.24 7.4 C 7.34 7.360001 7.39 7.290001 7.39 7.190001 L 7.84 7.129999 L 7.87 7.219999 C 7.93 7.16 8.01 7.129999 8.11 7.129999 L 8.26 7.129999 C 8.34 7.129999 8.41 7.16 8.47 7.219999 L 8.47 7.280001 L 8.62 7.129999 L 8.83 7.370001 C 8.83 7.33 8.86 7.290001 8.92 7.25 C 9 7.23 9.05 7.209999 9.07 7.190001 L 10.03 7.190001 L 10.12 7.25 L 10.09 7.34 L 10.3 7.34 L 10.27 7.25 C 10.27 7.17 10.32 7.129999 10.42 7.129999 L 10.45 7.280001 C 10.49 7.280001 10.53 7.27 10.57 7.25 C 10.61 7.25 10.65 7.25 10.69 7.25 C 10.71 7.25 10.74 7.26 10.78 7.280001 C 10.84 7.299999 10.88 7.309999 10.9 7.309999 L 10.99 7.219999 L 11.14 7.219999 C 11.14 7.24 11.13 7.27 11.11 7.309999 C 11.09 7.35 11.08 7.389999 11.08 7.43 C 11.08 7.469999 11.09 7.5 11.11 7.52 L 11.14 7.639999 L 11.23 7.639999 C 11.25 7.620001 11.26 7.6 11.26 7.58 L 11.14 7.459999 C 11.14 7.440001 11.16 7.4 11.2 7.34 C 11.26 7.280001 11.3 7.24 11.32 7.219999 L 11.32 7.34 C 11.34 7.34 11.37 7.35 11.41 7.370001 C 11.45 7.389999 11.48 7.4 11.5 7.4 C 11.56 7.360001 11.58 7.309999 11.56 7.25 C 11.54 7.209999 11.64 7.190001 11.86 7.190001 C 12.04 7.190001 12.15 7.219999 12.19 7.280001 L 12.22 7.280001 C 12.24 7.280001 12.26 7.27 12.28 7.25 L 12.37 7.190001 L 12.43 7.280001 C 12.47 7.280001 12.52 7.26 12.58 7.219999 C 12.64 7.200001 12.69 7.190001 12.73 7.190001 C 12.79 7.25 12.89 7.280001 13.03 7.280001 C 13.07 7.280001 13.1 7.27 13.12 7.25 L 13.06 7.43 L 13.15 7.52 L 13.15 7.76 C 13.21 7.700001 13.24 7.639999 13.24 7.58 L 13.24 7.370001 C 13.24 7.309999 13.31 7.27 13.45 7.25 C 13.59 7.25 13.67 7.25 13.69 7.25 C 13.77 7.25 13.81 7.280001 13.81 7.34 L 13.9 7.25 L 14.26 7.34 L 14.53 7.34 C 14.57 7.299999 14.59 7.27 14.59 7.25 C 14.61 7.23 14.68 7.219999 14.8 7.219999 C 14.86 7.219999 14.89 7.23 14.89 7.25 C 14.89 7.290001 14.91 7.309999 14.95 7.309999 C 14.99 7.309999 15.03 7.290001 15.07 7.25 C 15.11 7.209999 15.16 7.190001 15.22 7.190001 C 15.26 7.190001 15.3 7.209999 15.34 7.25 C 15.4 7.290001 15.45 7.309999 15.49 7.309999 C 15.51 7.290001 15.53 7.26 15.55 7.219999 C 15.57 7.200001 15.59 7.190001 15.61 7.190001 L 15.64 7.280001 C 15.66 7.280001 15.68 7.280001 15.7 7.280001 C 15.72 7.299999 15.74 7.309999 15.76 7.309999 C 15.76 7.290001 15.79 7.25 15.85 7.190001 C 15.93 7.15 15.98 7.120001 16 7.1 C 16 7.16 16.030001 7.190001 16.09 7.190001 C 16.110001 7.190001 16.139999 7.17 16.18 7.129999 C 16.219999 7.110001 16.25 7.1 16.27 7.1 C 16.309999 7.1 16.34 7.129999 16.360001 7.190001 C 16.379999 7.27 16.41 7.33 16.450001 7.370001 L 16.629999 7.280001 L 16.629999 7.49 C 16.629999 7.51 16.610001 7.530001 16.57 7.549999 C 16.549999 7.57 16.540001 7.59 16.540001 7.610001 L 16.57 7.67 L 16.629999 7.67 C 16.65 7.690001 16.67 7.700001 16.690001 7.700001 L 16.870001 7.43 L 16.9 7.610001 L 17.049999 7.49 L 17.049999 7.700001 L 17.23 7.58 L 17.23 7.82 L 17.139999 7.82 L 17.08 8.120001 L 17.17 8.209999 L 17.049999 8.33 L 17.110001 8.450001 L 16.99 8.48 Z M 12.43 8.059999 C 12.43 8.120001 12.44 8.16 12.46 8.18 C 12.5 8.219999 12.52 8.280001 12.52 8.360001 L 12.52 8.42 C 12.54 8.360001 12.58 8.309999 12.64 8.27 C 12.72 8.23 12.79 8.190001 12.85 8.15 C 12.91 8.129999 12.96 8.09 13 8.030001 C 13.06 7.969999 13.09 7.860001 13.09 7.700001 C 13.07 7.66 13.02 7.610001 12.94 7.549999 C 12.88 7.49 12.83 7.459999 12.79 7.459999 C 12.75 7.48 12.72 7.540001 12.7 7.639999 C 12.68 7.76 12.67 7.860001 12.67 7.940001 L 12.49 7.969999 L 12.43 8.059999 Z M 9.19 8.030001 C 9.23 8.030001 9.3 8.02 9.4 8 C 9.5 7.98 9.57 7.959999 9.61 7.940001 L 9.79 7.940001 L 9.79 7.610001 L 9.52 7.879999 L 9.34 7.879999 L 9.28 7.790001 C 9.16 7.790001 9.1 7.82 9.1 7.879999 L 9.19 8.030001 Z M 10.63 7.91 C 10.71 7.83 10.78 7.76 10.84 7.700001 C 10.9 7.66 10.93 7.6 10.93 7.52 L 10.63 7.549999 L 10.63 7.49 C 10.61 7.49 10.58 7.5 10.54 7.52 C 10.5 7.540001 10.48 7.559999 10.48 7.58 L 10.48 7.76 L 10.63 7.91 Z M 15.37 8.42 L 15.4 8.42 C 15.44 8.42 15.46 8.450001 15.46 8.51 L 15.43 8.540001 L 15.52 8.48 L 15.19 8.24 C 15.15 8.280001 15.12 8.34 15.1 8.42 C 15.1 8.5 15.1 8.559999 15.1 8.6 L 15.31 8.6 L 15.31 8.51 L 15.37 8.42 Z M 11.71 7.73 C 11.71 7.790001 11.74 7.82 11.8 7.82 L 11.8 7.549999 L 11.71 7.549999 L 11.77 7.4 L 11.5 7.639999 L 11.71 7.73 Z M 14.41 8.33 C 14.47 8.41 14.53 8.450001 14.59 8.450001 L 14.59 8.09 C 14.47 8.129999 14.41 8.209999 14.41 8.33 Z M 9.7 8.120001 C 9.66 8.120001 9.63 8.129999 9.61 8.15 L 9.55 8.209999 L 9.55 8.389999 C 9.67 8.389999 9.73 8.33 9.73 8.209999 L 9.7 8.120001 Z M 12.46 7.610001 C 12.44 7.610001 12.43 7.65 12.43 7.73 C 12.43 7.790001 12.44 7.82 12.46 7.82 L 12.49 7.790001 C 12.49 7.83 12.52 7.85 12.58 7.85 C 12.62 7.85 12.64 7.83 12.64 7.790001 C 12.64 7.73 12.62 7.700001 12.58 7.700001 L 12.55 7.700001 L 12.46 7.610001 Z M 6.88 8.27 C 6.88 8.23 6.91 8.209999 6.97 8.209999 L 6.97 8 L 6.85 7.969999 L 6.88 8.09 C 6.82 8.15 6.79 8.190001 6.79 8.209999 L 6.88 8.27 Z M 5.62 7.790001 C 5.58 7.790001 5.56 7.82 5.56 7.879999 C 5.56 7.940001 5.58 7.969999 5.62 7.969999 L 5.65 7.969999 C 5.65 8.01 5.68 8.030001 5.74 8.030001 C 5.76 8.030001 5.77 8.01 5.77 7.969999 C 5.77 7.91 5.75 7.879999 5.71 7.879999 L 5.68 7.879999 L 5.62 7.790001 Z M 7.81 7.82 C 7.77 7.82 7.75 7.85 7.75 7.91 C 7.75 7.969999 7.77 8 7.81 8 L 7.84 8 C 7.84 8.040001 7.86 8.059999 7.9 8.059999 C 7.94 8.059999 7.96 8.040001 7.96 8 C 7.96 7.940001 7.94 7.91 7.9 7.91 L 7.87 7.91 L 7.81 7.82 Z M 16.209999 8.120001 L 16.33 8.120001 L 16.33 7.969999 L 16.24 7.879999 C 16.219999 7.860001 16.200001 7.85 16.18 7.85 L 16.209999 8.120001 Z M 14.77 8.959999 C 14.81 8.940001 14.83 8.9 14.83 8.84 C 14.85 8.799999 14.86 8.77 14.86 8.75 L 14.8 8.629999 L 14.74 8.6 L 14.77 8.959999 Z M 13.9 7.49 C 13.88 7.49 13.87 7.52 13.87 7.58 C 13.87 7.639999 13.89 7.67 13.93 7.67 C 13.99 7.67 14.02 7.639999 14.02 7.58 C 14.02 7.52 13.98 7.49 13.9 7.49 Z M 6.22 7.52 C 6.1 7.52 6.04 7.59 6.04 7.73 L 6.16 7.700001 L 6.22 7.52 Z M 10 8.719999 L 10 8.209999 L 9.91 8.540001 L 10 8.719999 Z M 14.74 8.18 C 14.8 8.120001 14.83 8.059999 14.83 8 L 14.71 7.82 L 14.74 8.18 Z M 3.37 7.25 C 3.31 7.25 3.28 7.280001 3.28 7.34 C 3.28 7.4 3.31 7.43 3.37 7.43 C 3.41 7.43 3.43 7.4 3.43 7.34 L 3.37 7.25 Z M 2.74 8.450001 C 2.68 8.450001 2.65 8.48 2.65 8.540001 C 2.65 8.6 2.68 8.629999 2.74 8.629999 C 2.78 8.629999 2.8 8.6 2.8 8.540001 L 2.74 8.450001 Z M 8.56 8.48 C 8.5 8.48 8.47 8.51 8.47 8.57 C 8.47 8.629999 8.5 8.66 8.56 8.66 C 8.6 8.66 8.62 8.629999 8.62 8.57 L 8.56 8.48 Z M 1.72 9.17 C 1.76 9.17 1.78 9.200001 1.78 9.26 C 1.78 9.32 1.76 9.35 1.72 9.35 C 1.66 9.35 1.63 9.309999 1.63 9.23 L 1.72 9.17 Z M 12.55 7.280001 C 12.49 7.280001 12.46 7.309999 12.46 7.370001 C 12.46 7.43 12.49 7.459999 12.55 7.459999 C 12.59 7.459999 12.61 7.43 12.61 7.370001 L 12.55 7.280001 Z M 8.05 7.219999 C 7.99 7.219999 7.96 7.25 7.96 7.309999 C 7.96 7.370001 7.99 7.4 8.05 7.4 C 8.09 7.4 8.11 7.370001 8.11 7.309999 L 8.05 7.219999 Z M 16.27 7.190001 C 16.209999 7.190001 16.18 7.219999 16.18 7.280001 C 16.18 7.34 16.209999 7.370001 16.27 7.370001 C 16.309999 7.370001 16.33 7.34 16.33 7.280001 L 16.27 7.190001 Z M 11.65 8.84 C 11.61 8.84 11.59 8.870001 11.59 8.93 C 11.59 8.99 11.61 9.02 11.65 9.02 C 11.71 9.02 11.74 8.99 11.74 8.93 L 11.65 8.84 Z M 13.96 8.27 C 13.92 8.27 13.9 8.299999 13.9 8.360001 C 13.9 8.42 13.92 8.450001 13.96 8.450001 C 14.02 8.450001 14.05 8.42 14.05 8.360001 L 13.96 8.27 Z M 7.96 7.639999 C 7.92 7.639999 7.9 7.67 7.9 7.73 C 7.9 7.790001 7.92 7.82 7.96 7.82 C 8.02 7.82 8.05 7.790001 8.05 7.73 L 7.96 7.639999 Z M 3.13 8.030001 C 3.09 8.030001 3.07 8.059999 3.07 8.120001 C 3.07 8.18 3.1 8.209999 3.16 8.209999 C 3.2 8.209999 3.22 8.18 3.22 8.120001 L 3.13 8.030001 Z M 16.629999 8.780001 C 16.67 8.780001 16.690001 8.82 16.690001 8.9 C 16.690001 8.940001 16.67 8.959999 16.629999 8.959999 C 16.57 8.959999 16.540001 8.940001 16.540001 8.9 C 16.540001 8.860001 16.57 8.82 16.629999 8.780001 Z M 4.06 7.58 L 4.15 7.4 L 3.88 7.49 L 4.06 7.58 Z M 16.030001 8.120001 C 15.99 8.120001 15.97 8.15 15.97 8.209999 C 15.97 8.27 16 8.299999 16.059999 8.299999 C 16.1 8.299999 16.120001 8.27 16.120001 8.209999 L 16.030001 8.120001 Z M 5.44 7.879999 C 5.4 7.879999 5.38 7.91 5.38 7.969999 C 5.38 8.030001 5.41 8.059999 5.47 8.059999 C 5.51 8.059999 5.53 8.030001 5.53 7.969999 L 5.44 7.879999 Z M 2.71 8.120001 C 2.67 8.120001 2.65 8.15 2.65 8.209999 C 2.65 8.27 2.67 8.299999 2.71 8.299999 C 2.77 8.299999 2.8 8.27 2.8 8.209999 L 2.71 8.120001 Z M 2.65 8.809999 C 2.61 8.809999 2.59 8.84 2.59 8.9 C 2.59 8.959999 2.6 8.99 2.62 8.99 C 2.7 8.99 2.74 8.959999 2.74 8.9 L 2.65 8.809999 Z M 2.08 8.299999 C 2.04 8.299999 2.02 8.34 2.02 8.42 C 2.02 8.459999 2.05 8.48 2.11 8.48 C 2.15 8.48 2.17 8.450001 2.17 8.389999 L 2.08 8.299999 Z M 12.22 8.33 C 12.2 8.33 12.19 8.360001 12.19 8.42 C 12.19 8.459999 12.21 8.48 12.25 8.48 C 12.31 8.48 12.34 8.459999 12.34 8.42 C 12.34 8.360001 12.3 8.33 12.22 8.33 Z M 15.97 8.15 C 15.97 8.129999 15.98 8.08 16 8 C 16.02 7.940001 16.030001 7.889999 16.030001 7.85 C 16.030001 7.83 16.02 7.809999 16 7.790001 L 15.94 7.73 L 15.97 8.15 Z M 13.39 8.629999 C 13.33 8.629999 13.3 8.66 13.3 8.719999 L 13.39 8.809999 C 13.43 8.809999 13.45 8.780001 13.45 8.719999 L 13.39 8.629999 Z M 4.24 7.91 C 4.2 7.91 4.18 7.940001 4.18 8 C 4.18 8.059999 4.21 8.09 4.27 8.09 C 4.29 8.09 4.3 8.059999 4.3 8 L 4.24 7.91 Z M 9.4 8.389999 C 9.36 8.389999 9.34 8.42 9.34 8.48 C 9.34 8.540001 9.36 8.57 9.4 8.57 C 9.44 8.57 9.46 8.540001 9.46 8.48 L 9.4 8.389999 Z M 9.49 7.280001 C 9.45 7.280001 9.43 7.309999 9.43 7.370001 C 9.43 7.43 9.45 7.459999 9.49 7.459999 C 9.53 7.459999 9.55 7.43 9.55 7.370001 L 9.49 7.280001 Z M 8.92 7.549999 C 8.86 7.549999 8.83 7.57 8.83 7.610001 C 8.83 7.67 8.86 7.700001 8.92 7.700001 C 8.96 7.700001 8.98 7.68 8.98 7.639999 L 8.92 7.549999 Z M 5.2 7.790001 C 5.16 7.790001 5.14 7.82 5.14 7.879999 C 5.14 7.940001 5.16 7.969999 5.2 7.969999 C 5.24 7.969999 5.26 7.940001 5.26 7.879999 L 5.2 7.790001 Z M 12.07 7.969999 C 12.03 7.969999 12.01 8 12.01 8.059999 C 12.01 8.120001 12.03 8.15 12.07 8.15 C 12.11 8.15 12.13 8.120001 12.13 8.059999 L 12.07 7.969999 Z M 15.22 7.219999 C 15.18 7.219999 15.16 7.25 15.16 7.309999 C 15.16 7.370001 15.18 7.4 15.22 7.4 C 15.26 7.4 15.28 7.370001 15.28 7.309999 L 15.22 7.219999 Z M 16.15 8.389999 C 16.110001 8.389999 16.09 8.42 16.09 8.48 C 16.09 8.540001 16.110001 8.57 16.15 8.57 C 16.190001 8.57 16.209999 8.540001 16.209999 8.48 L 16.15 8.389999 Z M 7.24 7.07 C 7.28 7.07 7.3 7.1 7.3 7.16 C 7.3 7.219999 7.28 7.25 7.24 7.25 C 7.2 7.25 7.18 7.219999 7.18 7.16 L 7.24 7.07 Z M 12.88 8.9 C 12.92 8.9 12.94 8.93 12.94 8.99 C 12.94 9.049999 12.92 9.08 12.88 9.08 C 12.84 9.08 12.82 9.049999 12.82 8.99 L 12.88 8.9 Z M 3.34 8.6 C 3.3 8.6 3.28 8.629999 3.28 8.690001 C 3.28 8.75 3.3 8.780001 3.34 8.780001 C 3.38 8.780001 3.4 8.75 3.4 8.690001 L 3.34 8.6 Z M 11.14 8.870001 C 11.1 8.870001 11.08 8.9 11.08 8.959999 C 11.08 9 11.1 9.02 11.14 9.02 C 11.2 9.02 11.23 9 11.23 8.959999 L 11.14 8.870001 Z M 6.88 8.450001 C 6.84 8.450001 6.82 8.48 6.82 8.540001 C 6.82 8.58 6.84 8.6 6.88 8.6 C 6.94 8.6 6.97 8.58 6.97 8.540001 L 6.88 8.450001 Z M 3.01 7.370001 C 2.95 7.370001 2.92 7.4 2.92 7.459999 L 2.95 7.49 C 2.95 7.51 2.97 7.52 3.01 7.52 C 3.05 7.52 3.07 7.51 3.07 7.49 L 3.07 7.459999 L 3.01 7.370001 Z M 5.95 8.48 C 5.89 8.48 5.86 8.51 5.86 8.57 C 5.86 8.610001 5.89 8.629999 5.95 8.629999 C 5.99 8.629999 6.01 8.610001 6.01 8.57 L 5.95 8.48 Z M 14.56 7.67 C 14.5 7.67 14.47 7.700001 14.47 7.76 C 14.47 7.799999 14.5 7.82 14.56 7.82 C 14.6 7.82 14.62 7.799999 14.62 7.76 L 14.56 7.67 Z M 10.03 8.809999 C 9.97 8.809999 9.94 8.84 9.94 8.9 C 9.94 8.940001 9.97 8.959999 10.03 8.959999 C 10.07 8.959999 10.09 8.940001 10.09 8.9 L 10.03 8.809999 Z M 5.68 8.48 C 5.62 8.48 5.59 8.51 5.59 8.57 C 5.59 8.610001 5.62 8.629999 5.68 8.629999 C 5.72 8.629999 5.74 8.610001 5.74 8.57 L 5.68 8.48 Z M 14.23 8.360001 C 14.19 8.360001 14.17 8.389999 14.17 8.450001 L 14.2 8.51 C 14.28 8.51 14.32 8.48 14.32 8.42 L 14.23 8.360001 Z M 1.78 8.84 C 1.74 8.84 1.72 8.870001 1.72 8.93 C 1.72 8.969999 1.74 8.99 1.78 8.99 C 1.84 8.99 1.87 8.969999 1.87 8.93 L 1.78 8.84 Z M 1.99 8.059999 C 1.95 8.059999 1.93 8.09 1.93 8.15 C 1.93 8.190001 1.95 8.209999 1.99 8.209999 C 2.05 8.209999 2.08 8.190001 2.08 8.15 L 1.99 8.059999 Z M 5.68 7.549999 C 5.64 7.549999 5.62 7.57 5.62 7.610001 C 5.62 7.67 5.65 7.700001 5.71 7.700001 C 5.75 7.700001 5.77 7.68 5.77 7.639999 L 5.68 7.549999 Z M 16.360001 8.9 C 16.4 8.9 16.42 8.93 16.42 8.99 C 16.42 9.030001 16.4 9.049999 16.360001 9.049999 C 16.299999 9.049999 16.27 9.030001 16.27 8.99 L 16.360001 8.9 Z M 15.1 8.059999 C 15.06 8.059999 15.04 8.1 15.04 8.18 C 15.04 8.219999 15.06 8.24 15.1 8.24 C 15.14 8.24 15.16 8.219999 15.16 8.18 L 15.1 8.059999 Z M 15.52 7.790001 C 15.48 7.790001 15.46 7.82 15.46 7.879999 C 15.46 7.940001 15.49 7.969999 15.55 7.969999 L 15.58 7.940001 L 15.52 7.790001 Z M 1.72 7.4 C 1.66 7.4 1.63 7.42 1.63 7.459999 C 1.63 7.52 1.66 7.549999 1.72 7.549999 C 1.76 7.549999 1.76 7.5 1.72 7.4 Z M 13.09 8.030001 C 13.05 8.07 13.03 8.110001 13.03 8.15 C 13.03 8.190001 13.05 8.209999 13.09 8.209999 C 13.13 8.209999 13.15 8.18 13.15 8.120001 L 13.09 8.030001 Z M 14.62 8.959999 C 14.56 8.959999 14.53 8.98 14.53 9.02 C 14.53 9.08 14.57 9.110001 14.65 9.110001 C 14.67 9.110001 14.66 9.059999 14.62 8.959999 Z M 15.7 8.57 C 15.68 8.57 15.67 8.6 15.67 8.66 C 15.67 8.719999 15.69 8.75 15.73 8.75 C 15.77 8.75 15.79 8.73 15.79 8.690001 L 15.7 8.57 Z M 5.23 8.51 C 5.19 8.51 5.17 8.540001 5.17 8.6 L 5.23 8.66 C 5.25 8.66 5.27 8.65 5.29 8.629999 L 5.32 8.6 L 5.23 8.51 Z M 0.58 7.43 C 0.56 7.43 0.55 7.450001 0.55 7.49 C 0.55 7.549999 0.56 7.58 0.58 7.58 C 0.64 7.58 0.67 7.549999 0.67 7.49 L 0.58 7.43 Z M 9.25 7.459999 C 9.21 7.459999 9.19 7.49 9.19 7.549999 C 9.19 7.59 9.22 7.610001 9.28 7.610001 C 9.3 7.610001 9.31 7.59 9.31 7.549999 L 9.25 7.459999 Z M 15.91 8.66 C 15.87 8.66 15.85 8.690001 15.85 8.75 C 15.85 8.790001 15.87 8.809999 15.91 8.809999 C 15.95 8.809999 15.97 8.790001 15.97 8.75 L 15.91 8.66 Z M 15.25 8 C 15.21 8 15.19 8.030001 15.19 8.09 C 15.19 8.129999 15.21 8.15 15.25 8.15 C 15.29 8.15 15.31 8.129999 15.31 8.09 L 15.25 8 Z M 14.38 7.67 C 14.34 7.67 14.32 7.700001 14.32 7.76 C 14.32 7.799999 14.34 7.82 14.38 7.82 C 14.42 7.82 14.44 7.799999 14.44 7.76 L 14.38 7.67 Z M 16.42 8.389999 L 16.6 8.27 L 16.48 8.209999 L 16.42 8.389999 Z M 14.2 7.67 C 14.16 7.67 14.14 7.700001 14.14 7.76 C 14.14 7.799999 14.16 7.82 14.2 7.82 C 14.24 7.82 14.26 7.799999 14.26 7.76 L 14.2 7.67 Z M 13.54 8.719999 C 13.52 8.719999 13.51 8.75 13.51 8.809999 C 13.51 8.85 13.53 8.870001 13.57 8.870001 C 13.61 8.870001 13.63 8.85 13.63 8.809999 L 13.54 8.719999 Z M 14.11 7.43 C 14.05 7.43 14.02 7.450001 14.02 7.49 L 14.11 7.58 C 14.15 7.58 14.15 7.530001 14.11 7.43 Z M 9.67 7.459999 C 9.63 7.459999 9.61 7.48 9.61 7.52 C 9.61 7.58 9.64 7.610001 9.7 7.610001 C 9.72 7.610001 9.71 7.559999 9.67 7.459999 Z M 8.32 8.84 L 8.35 8.93 L 8.32 8.99 C 8.26 8.99 8.23 8.969999 8.23 8.93 L 8.32 8.84 Z M 9.49 8.57 C 9.45 8.57 9.43 8.59 9.43 8.629999 C 9.43 8.690001 9.45 8.719999 9.49 8.719999 C 9.53 8.719999 9.53 8.67 9.49 8.57 Z M 5.14 8.15 C 5.1 8.15 5.08 8.17 5.08 8.209999 C 5.08 8.27 5.1 8.299999 5.14 8.299999 C 5.18 8.299999 5.18 8.25 5.14 8.15 Z M 3.85 8.540001 L 3.85 8.51 C 3.85 8.49 3.82 8.48 3.76 8.48 C 3.72 8.48 3.7 8.5 3.7 8.540001 C 3.7 8.559999 3.72 8.57 3.76 8.57 L 3.85 8.540001 Z M 14.23 8.030001 C 14.19 8.030001 14.17 8.059999 14.17 8.120001 C 14.17 8.16 14.19 8.18 14.23 8.18 C 14.27 8.18 14.27 8.129999 14.23 8.030001 Z M 13.81 8.690001 L 13.78 8.809999 C 13.78 8.85 13.79 8.870001 13.81 8.870001 C 13.85 8.870001 13.87 8.84 13.87 8.780001 L 13.81 8.690001 Z M 10.18 8.389999 C 10.14 8.389999 10.12 8.42 10.12 8.48 C 10.12 8.52 10.14 8.540001 10.18 8.540001 C 10.22 8.540001 10.22 8.49 10.18 8.389999 Z M 4 7.76 C 3.96 7.76 3.94 7.780001 3.94 7.82 C 3.94 7.879999 3.96 7.91 4 7.91 C 4.04 7.91 4.04 7.860001 4 7.76 Z M 13.75 7.43 C 13.71 7.43 13.69 7.450001 13.69 7.49 C 13.73 7.57 13.75 7.6 13.75 7.58 C 13.79 7.58 13.79 7.530001 13.75 7.43 Z M 4.6 7.4 C 4.56 7.4 4.54 7.43 4.54 7.49 C 4.54 7.549999 4.56 7.58 4.6 7.58 L 4.6 7.4 Z M 12.37 8.57 C 12.33 8.57 12.31 8.6 12.31 8.66 C 12.31 8.719999 12.33 8.75 12.37 8.75 L 12.37 8.57 Z M 13.75 7.67 C 13.73 7.67 13.72 7.700001 13.72 7.76 C 13.72 7.799999 13.73 7.82 13.75 7.82 C 13.79 7.82 13.81 7.799999 13.81 7.76 L 13.75 7.67 Z M 16.9 8.030001 L 16.99 7.85 L 16.9 7.85 L 16.9 8.030001 Z M 7.54 8.09 L 7.51 8.18 L 7.54 8.24 C 7.58 8.24 7.6 8.219999 7.6 8.18 L 7.54 8.09 Z M 12.07 8.66 L 12.04 8.690001 C 12.04 8.709999 12.05 8.73 12.07 8.75 L 12.07 8.84 C 12.11 8.84 12.13 8.82 12.13 8.780001 C 12.11 8.76 12.09 8.719999 12.07 8.66 Z M 14.89 7.610001 C 14.89 7.67 14.92 7.709999 14.98 7.73 C 15 7.709999 15.01 7.690001 15.01 7.67 L 14.89 7.610001 Z M 7.54 7.67 L 7.6 7.58 L 7.51 7.49 L 7.54 7.67 Z M 10.06 7.610001 C 10 7.59 9.96 7.559999 9.94 7.52 L 9.97 7.67 L 10.06 7.610001 Z M 3.4 8.09 L 3.46 7.969999 L 3.37 7.940001 L 3.4 8.09 Z M 9.04 8.299999 C 9 8.299999 8.98 8.32 8.98 8.360001 L 9.04 8.42 L 9.04 8.299999 Z M 8.77 8.299999 C 8.77 8.34 8.78 8.389999 8.8 8.450001 C 8.84 8.51 8.87 8.549999 8.89 8.57 L 8.77 8.299999 Z M 15.16 7.549999 C 15.12 7.549999 15.1 7.57 15.1 7.610001 C 15.12 7.629999 15.14 7.639999 15.16 7.639999 L 15.16 7.549999 Z M 16 7.370001 L 15.97 7.309999 L 15.91 7.370001 C 15.91 7.389999 15.94 7.389999 16 7.370001 Z M 16.48 7.52 C 16.459999 7.5 16.440001 7.49 16.42 7.49 L 16.389999 7.58 L 16.48 7.52 Z M 5.77 7.280001 L 5.74 7.309999 C 5.74 7.35 5.75 7.370001 5.77 7.370001 C 5.81 7.370001 5.81 7.34 5.77 7.280001 Z M 14.59 8.6 L 14.56 8.629999 C 14.56 8.67 14.57 8.690001 14.59 8.690001 C 14.61 8.690001 14.61 8.66 14.59 8.6 Z M 7.21 8.27 L 7.18 8.299999 C 7.18 8.34 7.19 8.360001 7.21 8.360001 C 7.23 8.360001 7.23 8.33 7.21 8.27 Z M 15.67 8.120001 L 15.67 8.030001 L 15.61 8.030001 L 15.67 8.120001 Z M 13.42 7.85 L 13.39 7.879999 C 13.39 7.92 13.41 7.940001 13.45 7.940001 L 13.42 7.85 Z M 11.29 8.360001 C 11.29 8.32 11.27 8.299999 11.23 8.299999 L 11.2 8.33 L 11.29 8.360001 Z M 3.79 7.790001 L 3.79 7.73 C 3.75 7.73 3.73 7.74 3.73 7.76 L 3.79 7.790001 Z M 11.23 8.51 C 11.19 8.51 11.17 8.540001 11.17 8.6 L 11.23 8.51 Z M 0.85 7.459999 C 0.83 7.48 0.82 7.5 0.82 7.52 C 0.82 7.559999 0.83 7.58 0.85 7.58 L 0.85 7.459999 Z M 14.02 7.76 L 13.99 7.73 C 13.95 7.73 13.93 7.74 13.93 7.76 L 14.02 7.76 Z M 6.13 7.43 L 6.1 7.4 L 6.04 7.459999 L 6.13 7.43 Z M 12.55 7.700001 C 12.51 7.74 12.49 7.77 12.49 7.790001 L 12.55 7.700001 Z M 10.18 8.6 C 10.16 8.620001 10.15 8.639999 10.15 8.66 L 10.15 8.719999 L 10.18 8.6 Z M 2.8 8.030001 C 2.8 8.01 2.77 8 2.71 8 L 2.8 8.030001 Z M 1.39 7.879999 L 1.3 7.879999 C 1.3 7.92 1.33 7.92 1.39 7.879999 Z M 7.87 7.91 C 7.85 7.93 7.84 7.959999 7.84 8 L 7.87 7.91 Z M 5.68 7.879999 C 5.66 7.9 5.65 7.93 5.65 7.969999 L 5.68 7.879999 Z M 4 8.959999 L 3.97 8.959999 C 3.93 8.959999 3.91 8.950001 3.91 8.93 L 4 8.959999 Z M 5.89 7.700001 C 5.87 7.700001 5.86 7.719999 5.86 7.76 L 5.89 7.700001 Z M 13.21 8.360001 C 13.19 8.34 13.17 8.33 13.15 8.33 L 13.21 8.360001 Z M 2.71 7.790001 C 2.67 7.790001 2.65 7.799999 2.65 7.82 L 2.71 7.790001 Z M 7.06 8.780001 L 7.03 8.75 C 6.99 8.75 7 8.76 7.06 8.780001 Z"/>
    <path id="path2" fill="#ffffff" stroke="none" d="M 16.99 15.48 L 17.049999 15.330002 L 17.02 15.360001 L 16.84 15.209999 L 16.780001 15.209999 C 16.74 15.209999 16.709999 15.240002 16.690001 15.299999 C 16.67 15.380001 16.66 15.43 16.66 15.450001 L 16.6 15.360001 C 16.559999 15.400002 16.540001 15.439999 16.540001 15.48 C 16.540001 15.52 16.549999 15.540001 16.57 15.540001 L 16.629999 15.540001 C 16.57 15.599998 16.540001 15.66 16.540001 15.720001 L 16.540001 15.810001 L 16.48 15.810001 C 16.48 15.650002 16.4 15.57 16.24 15.57 C 16.219999 15.59 16.200001 15.630001 16.18 15.689999 C 16.18 15.75 16.18 15.790001 16.18 15.810001 C 16.18 15.869999 16.209999 15.900002 16.27 15.900002 C 16.27 15.939999 16.24 15.98 16.18 16.02 C 16.120001 16.060001 16.07 16.080002 16.030001 16.080002 C 15.97 16.080002 15.92 16.060001 15.88 16.02 C 15.84 15.98 15.82 15.950001 15.82 15.93 L 15.67 16.080002 L 15.58 15.990002 L 15.67 15.93 C 15.63 15.810001 15.57 15.75 15.49 15.75 C 15.45 15.75 15.42 15.759998 15.4 15.779999 C 15.38 15.82 15.35 15.84 15.31 15.84 L 15.22 15.84 L 15.13 15.93 L 15.13 16.02 L 15.04 16.110001 L 14.86 16.02 C 14.86 16.040001 14.84 16.07 14.8 16.110001 C 14.78 16.169998 14.76 16.200001 14.74 16.200001 C 14.68 16.200001 14.6 16.169998 14.5 16.110001 C 14.4 16.07 14.35 16.040001 14.35 16.02 C 14.27 16.060001 14.16 16.09 14.02 16.110001 C 13.88 16.130001 13.79 16.139999 13.75 16.139999 L 13.6 16.139999 L 13.48 16.049999 C 13.48 16.009998 13.44 15.98 13.36 15.959999 C 13.3 15.959999 13.26 15.939999 13.24 15.900002 L 13.15 16.049999 L 13.03 16.110001 C 13.03 15.93 13.1 15.799999 13.24 15.720001 C 13.2 15.66 13.16 15.630001 13.12 15.630001 L 12.97 15.720001 L 12.94 15.57 C 12.8 15.57 12.74 15.619999 12.76 15.720001 C 12.78 15.84 12.74 15.900002 12.64 15.900002 L 12.46 15.900002 C 12.4 15.900002 12.37 15.93 12.37 15.990002 L 12.31 16.169998 C 12.21 16.169998 12.12 16.139999 12.04 16.080002 C 11.96 16.02 11.9 15.990002 11.86 15.990002 C 11.78 15.990002 11.73 16 11.71 16.02 L 11.59 16.110001 L 11.41 16.110001 C 11.35 16.049999 11.29 16.02 11.23 16.02 L 11.08 16.110001 C 11.02 16.110001 10.99 16.09 10.99 16.049999 L 10.99 15.599998 L 10.78 15.599998 L 10.78 16.049999 L 10.72 16.049999 C 10.72 15.990002 10.7 15.93 10.66 15.869999 C 10.62 15.810001 10.58 15.779999 10.54 15.779999 C 10.42 15.779999 10.36 15.860001 10.36 16.02 L 9.91 16.049999 L 9.76 15.810001 L 9.67 15.869999 C 9.65 15.889999 9.63 15.900002 9.61 15.900002 L 9.34 15.959999 L 9.16 15.900002 C 9.12 15.900002 9.08 15.91 9.04 15.93 C 9 15.950001 8.93 15.970001 8.83 15.990002 C 8.87 15.990002 8.89 15.970001 8.89 15.93 L 8.83 15.84 C 8.79 15.84 8.77 15.869999 8.77 15.93 C 8.77 15.950001 8.78 15.970001 8.8 15.990002 L 8.65 15.990002 C 8.69 15.990002 8.71 15.970001 8.71 15.93 C 8.71 15.869999 8.69 15.84 8.65 15.84 C 8.61 15.84 8.59 15.869999 8.59 15.93 C 8.59 15.970001 8.61 15.990002 8.65 15.990002 C 8.57 15.990002 8.51 15.970001 8.47 15.93 L 8.47 15.84 C 8.45 15.84 8.43 15.830002 8.41 15.810001 L 8.35 15.75 L 8.35 15.599998 C 8.33 15.66 8.3 15.720001 8.26 15.779999 C 8.22 15.84 8.18 15.869999 8.14 15.869999 C 8.12 15.73 8.09 15.59 8.05 15.450001 C 8.01 15.310001 7.94 15.240002 7.84 15.240002 C 7.84 15.279999 7.84 15.330002 7.84 15.389999 C 7.86 15.470001 7.87 15.549999 7.87 15.630001 C 7.87 15.790001 7.81 15.900002 7.69 15.959999 L 7.36 15.689999 L 7.39 15.959999 L 6.58 15.959999 C 6.6 15.959999 6.61 15.939999 6.61 15.900002 C 6.61 15.84 6.58 15.810001 6.52 15.810001 C 6.5 15.810001 6.49 15.84 6.49 15.900002 C 6.49 15.939999 6.5 15.959999 6.52 15.959999 L 6.31 15.959999 L 6.28 15.720001 L 6.22 15.900002 L 6.16 15.93 L 6.1 15.990002 L 5.86 15.900002 C 5.86 15.880001 5.83 15.849998 5.77 15.810001 C 5.73 15.77 5.7 15.740002 5.68 15.720001 C 5.62 15.759998 5.59 15.849998 5.59 15.990002 L 4.87 16.02 L 4.9 15.93 C 4.9 15.869999 4.88 15.84 4.84 15.84 C 4.8 15.84 4.78 15.869999 4.78 15.93 L 4.78 16.02 L 4.66 16.02 L 4.66 15.959999 L 4.57 15.959999 C 4.55 15.959999 4.53 15.950001 4.51 15.93 C 4.47 15.93 4.43 15.939999 4.39 15.959999 C 4.35 16 4.32 16.02 4.3 16.02 L 4 15.959999 L 4.03 15.869999 C 3.99 15.810001 3.96 15.779999 3.94 15.779999 C 3.9 15.779999 3.88 15.810001 3.88 15.869999 C 3.88 15.91 3.89 15.93 3.91 15.93 C 3.83 15.91 3.79 15.869999 3.79 15.810001 C 3.77 15.77 3.74 15.73 3.7 15.689999 L 3.61 15.720001 L 3.64 15.959999 L 3.46 15.900002 L 3.46 15.959999 C 3.46 16.060001 3.4 16.110001 3.28 16.110001 C 3.16 16.110001 3.1 16.150002 3.1 16.23 L 2.92 16.32 L 3.01 16.139999 C 2.91 16.099998 2.8 16.07 2.68 16.049999 C 2.54 16.049999 2.41 16.049999 2.29 16.049999 C 2.25 16.049999 2.21 16.049999 2.17 16.049999 C 2.11 16.07 2.07 16.080002 2.05 16.080002 L 2.14 15.990002 L 1.93 16.049999 C 1.91 16.07 1.88 16.080002 1.84 16.080002 L 0.85 16.110001 L 0.61 15.959999 L 0.58 15.869999 C 0.46 15.23 0.32 14.799999 0.16 14.580002 L 0.16 14.490002 C 0.22 14.349998 0.33 14.279999 0.49 14.279999 L 0.52 14.369999 C 0.58 14.369999 0.74 14.369999 1 14.369999 C 1.24 14.389999 1.39 14.400002 1.45 14.400002 C 1.47 14.400002 1.53 14.380001 1.63 14.34 C 1.73 14.32 1.79 14.310001 1.81 14.310001 L 1.96 14.400002 C 1.98 14.400002 2.03 14.380001 2.11 14.34 C 2.17 14.299999 2.21 14.279999 2.23 14.279999 L 2.56 14.279999 C 2.58 14.279999 2.6 14.310001 2.62 14.369999 C 2.64 14.43 2.66 14.48 2.68 14.52 L 2.68 14.610001 C 2.74 14.450001 2.87 14.330002 3.07 14.25 C 3.27 14.169998 3.45 14.130001 3.61 14.130001 L 3.64 14.400002 C 3.64 14.380001 3.66 14.34 3.7 14.279999 C 3.74 14.240002 3.76 14.189999 3.76 14.130001 L 3.88 14.25 L 3.88 14.34 C 3.92 14.299999 4.02 14.25 4.18 14.189999 C 4.34 14.150002 4.47 14.130001 4.57 14.130001 C 4.61 14.130001 4.65 14.139999 4.69 14.16 C 4.75 14.200001 4.79 14.220001 4.81 14.220001 L 4.93 14.310001 C 4.95 14.310001 4.97 14.290001 4.99 14.25 C 5.03 14.23 5.06 14.220001 5.08 14.220001 L 5.08 14.25 C 5.12 14.25 5.18 14.259998 5.26 14.279999 C 5.34 14.299999 5.4 14.310001 5.44 14.310001 L 5.59 14.189999 L 6.1 14.189999 C 6.18 14.189999 6.24 14.169998 6.28 14.130001 C 6.34 14.09 6.42 14.07 6.52 14.07 C 6.6 14.07 6.64 14.080002 6.64 14.099998 C 6.66 14.139999 6.69 14.16 6.73 14.16 L 6.97 14.16 C 7.01 14.16 7.06 14.18 7.12 14.220001 C 7.2 14.279999 7.24 14.34 7.24 14.400002 C 7.34 14.360001 7.39 14.290001 7.39 14.189999 L 7.84 14.130001 L 7.87 14.220001 C 7.93 14.16 8.01 14.130001 8.11 14.130001 L 8.26 14.130001 C 8.34 14.130001 8.41 14.16 8.47 14.220001 L 8.47 14.279999 L 8.62 14.130001 L 8.83 14.369999 C 8.83 14.330002 8.86 14.290001 8.92 14.25 C 9 14.23 9.05 14.209999 9.07 14.189999 L 10.03 14.189999 L 10.12 14.25 L 10.09 14.34 L 10.3 14.34 L 10.27 14.25 C 10.27 14.169998 10.32 14.130001 10.42 14.130001 L 10.45 14.279999 C 10.49 14.279999 10.53 14.27 10.57 14.25 C 10.61 14.25 10.65 14.25 10.69 14.25 C 10.71 14.25 10.74 14.259998 10.78 14.279999 C 10.84 14.299999 10.88 14.310001 10.9 14.310001 L 10.99 14.220001 L 11.14 14.220001 C 11.14 14.240002 11.13 14.27 11.11 14.310001 C 11.09 14.349998 11.08 14.389999 11.08 14.43 C 11.08 14.470001 11.09 14.5 11.11 14.52 L 11.14 14.639999 L 11.23 14.639999 C 11.25 14.619999 11.26 14.599998 11.26 14.580002 L 11.14 14.459999 C 11.14 14.439999 11.16 14.400002 11.2 14.34 C 11.26 14.279999 11.3 14.240002 11.32 14.220001 L 11.32 14.34 C 11.34 14.34 11.37 14.349998 11.41 14.369999 C 11.45 14.389999 11.48 14.400002 11.5 14.400002 C 11.56 14.360001 11.58 14.310001 11.56 14.25 C 11.54 14.209999 11.64 14.189999 11.86 14.189999 C 12.04 14.189999 12.15 14.220001 12.19 14.279999 L 12.22 14.279999 C 12.24 14.279999 12.26 14.27 12.28 14.25 L 12.37 14.189999 L 12.43 14.279999 C 12.47 14.279999 12.52 14.259998 12.58 14.220001 C 12.64 14.200001 12.69 14.189999 12.73 14.189999 C 12.79 14.25 12.89 14.279999 13.03 14.279999 C 13.07 14.279999 13.1 14.27 13.12 14.25 L 13.06 14.43 L 13.15 14.52 L 13.15 14.759998 C 13.21 14.700001 13.24 14.639999 13.24 14.580002 L 13.24 14.369999 C 13.24 14.310001 13.31 14.27 13.45 14.25 C 13.59 14.25 13.67 14.25 13.69 14.25 C 13.77 14.25 13.81 14.279999 13.81 14.34 L 13.9 14.25 L 14.26 14.34 L 14.53 14.34 C 14.57 14.299999 14.59 14.27 14.59 14.25 C 14.61 14.23 14.68 14.220001 14.8 14.220001 C 14.86 14.220001 14.89 14.23 14.89 14.25 C 14.89 14.290001 14.91 14.310001 14.95 14.310001 C 14.99 14.310001 15.03 14.290001 15.07 14.25 C 15.11 14.209999 15.16 14.189999 15.22 14.189999 C 15.26 14.189999 15.3 14.209999 15.34 14.25 C 15.4 14.290001 15.45 14.310001 15.49 14.310001 C 15.51 14.290001 15.53 14.259998 15.55 14.220001 C 15.57 14.200001 15.59 14.189999 15.61 14.189999 L 15.64 14.279999 C 15.66 14.279999 15.68 14.279999 15.7 14.279999 C 15.72 14.299999 15.74 14.310001 15.76 14.310001 C 15.76 14.290001 15.79 14.25 15.85 14.189999 C 15.93 14.150002 15.98 14.119999 16 14.099998 C 16 14.16 16.030001 14.189999 16.09 14.189999 C 16.110001 14.189999 16.139999 14.169998 16.18 14.130001 C 16.219999 14.110001 16.25 14.099998 16.27 14.099998 C 16.309999 14.099998 16.34 14.130001 16.360001 14.189999 C 16.379999 14.27 16.41 14.330002 16.450001 14.369999 L 16.629999 14.279999 L 16.629999 14.490002 C 16.629999 14.509998 16.610001 14.529999 16.57 14.549999 C 16.549999 14.57 16.540001 14.59 16.540001 14.610001 L 16.57 14.669998 L 16.629999 14.669998 C 16.65 14.689999 16.67 14.700001 16.690001 14.700001 L 16.870001 14.43 L 16.9 14.610001 L 17.049999 14.490002 L 17.049999 14.700001 L 17.23 14.580002 L 17.23 14.82 L 17.139999 14.82 L 17.08 15.119999 L 17.17 15.209999 L 17.049999 15.330002 L 17.110001 15.450001 L 16.99 15.48 Z M 12.43 15.060001 C 12.43 15.119999 12.44 15.16 12.46 15.18 C 12.5 15.220001 12.52 15.279999 12.52 15.360001 L 12.52 15.419998 C 12.54 15.360001 12.58 15.310001 12.64 15.27 C 12.72 15.23 12.79 15.189999 12.85 15.150002 C 12.91 15.130001 12.96 15.09 13 15.029999 C 13.06 14.970001 13.09 14.860001 13.09 14.700001 C 13.07 14.66 13.02 14.610001 12.94 14.549999 C 12.88 14.490002 12.83 14.459999 12.79 14.459999 C 12.75 14.48 12.72 14.540001 12.7 14.639999 C 12.68 14.759998 12.67 14.860001 12.67 14.939999 L 12.49 14.970001 L 12.43 15.060001 Z M 9.19 15.029999 C 9.23 15.029999 9.3 15.02 9.4 15 C 9.5 14.98 9.57 14.959999 9.61 14.939999 L 9.79 14.939999 L 9.79 14.610001 L 9.52 14.880001 L 9.34 14.880001 L 9.28 14.790001 C 9.16 14.790001 9.1 14.82 9.1 14.880001 L 9.19 15.029999 Z M 10.63 14.91 C 10.71 14.830002 10.78 14.759998 10.84 14.700001 C 10.9 14.66 10.93 14.599998 10.93 14.52 L 10.63 14.549999 L 10.63 14.490002 C 10.61 14.490002 10.58 14.5 10.54 14.52 C 10.5 14.540001 10.48 14.560001 10.48 14.580002 L 10.48 14.759998 L 10.63 14.91 Z M 15.37 15.419998 L 15.4 15.419998 C 15.44 15.419998 15.46 15.450001 15.46 15.509998 L 15.43 15.540001 L 15.52 15.48 L 15.19 15.240002 C 15.15 15.279999 15.12 15.34 15.1 15.419998 C 15.1 15.5 15.1 15.560001 15.1 15.599998 L 15.31 15.599998 L 15.31 15.509998 L 15.37 15.419998 Z M 11.71 14.73 C 11.71 14.790001 11.74 14.82 11.8 14.82 L 11.8 14.549999 L 11.71 14.549999 L 11.77 14.400002 L 11.5 14.639999 L 11.71 14.73 Z M 14.41 15.330002 C 14.47 15.41 14.53 15.450001 14.59 15.450001 L 14.59 15.09 C 14.47 15.130001 14.41 15.209999 14.41 15.330002 Z M 9.7 15.119999 C 9.66 15.119999 9.63 15.130001 9.61 15.150002 L 9.55 15.209999 L 9.55 15.389999 C 9.67 15.389999 9.73 15.330002 9.73 15.209999 L 9.7 15.119999 Z M 12.46 14.610001 C 12.44 14.610001 12.43 14.650002 12.43 14.73 C 12.43 14.790001 12.44 14.82 12.46 14.82 L 12.49 14.790001 C 12.49 14.830002 12.52 14.849998 12.58 14.849998 C 12.62 14.849998 12.64 14.830002 12.64 14.790001 C 12.64 14.73 12.62 14.700001 12.58 14.700001 L 12.55 14.700001 L 12.46 14.610001 Z M 6.88 15.27 C 6.88 15.23 6.91 15.209999 6.97 15.209999 L 6.97 15 L 6.85 14.970001 L 6.88 15.09 C 6.82 15.150002 6.79 15.189999 6.79 15.209999 L 6.88 15.27 Z M 5.62 14.790001 C 5.58 14.790001 5.56 14.82 5.56 14.880001 C 5.56 14.939999 5.58 14.970001 5.62 14.970001 L 5.65 14.970001 C 5.65 15.009998 5.68 15.029999 5.74 15.029999 C 5.76 15.029999 5.77 15.009998 5.77 14.970001 C 5.77 14.91 5.75 14.880001 5.71 14.880001 L 5.68 14.880001 L 5.62 14.790001 Z M 7.81 14.82 C 7.77 14.82 7.75 14.849998 7.75 14.91 C 7.75 14.970001 7.77 15 7.81 15 L 7.84 15 C 7.84 15.040001 7.86 15.060001 7.9 15.060001 C 7.94 15.060001 7.96 15.040001 7.96 15 C 7.96 14.939999 7.94 14.91 7.9 14.91 L 7.87 14.91 L 7.81 14.82 Z M 16.209999 15.119999 L 16.33 15.119999 L 16.33 14.970001 L 16.24 14.880001 C 16.219999 14.860001 16.200001 14.849998 16.18 14.849998 L 16.209999 15.119999 Z M 14.77 15.959999 C 14.81 15.939999 14.83 15.900002 14.83 15.84 C 14.85 15.799999 14.86 15.77 14.86 15.75 L 14.8 15.630001 L 14.74 15.599998 L 14.77 15.959999 Z M 13.9 14.490002 C 13.88 14.490002 13.87 14.52 13.87 14.580002 C 13.87 14.639999 13.89 14.669998 13.93 14.669998 C 13.99 14.669998 14.02 14.639999 14.02 14.580002 C 14.02 14.52 13.98 14.490002 13.9 14.490002 Z M 6.22 14.52 C 6.1 14.52 6.04 14.59 6.04 14.73 L 6.16 14.700001 L 6.22 14.52 Z M 10 15.720001 L 10 15.209999 L 9.91 15.540001 L 10 15.720001 Z M 14.74 15.18 C 14.8 15.119999 14.83 15.060001 14.83 15 L 14.71 14.82 L 14.74 15.18 Z M 3.37 14.25 C 3.31 14.25 3.28 14.279999 3.28 14.34 C 3.28 14.400002 3.31 14.43 3.37 14.43 C 3.41 14.43 3.43 14.400002 3.43 14.34 L 3.37 14.25 Z M 2.74 15.450001 C 2.68 15.450001 2.65 15.48 2.65 15.540001 C 2.65 15.599998 2.68 15.630001 2.74 15.630001 C 2.78 15.630001 2.8 15.599998 2.8 15.540001 L 2.74 15.450001 Z M 8.56 15.48 C 8.5 15.48 8.47 15.509998 8.47 15.57 C 8.47 15.630001 8.5 15.66 8.56 15.66 C 8.6 15.66 8.62 15.630001 8.62 15.57 L 8.56 15.48 Z M 1.72 16.169998 C 1.76 16.169998 1.78 16.200001 1.78 16.259998 C 1.78 16.32 1.76 16.349998 1.72 16.349998 C 1.66 16.349998 1.63 16.310001 1.63 16.23 L 1.72 16.169998 Z M 12.55 14.279999 C 12.49 14.279999 12.46 14.310001 12.46 14.369999 C 12.46 14.43 12.49 14.459999 12.55 14.459999 C 12.59 14.459999 12.61 14.43 12.61 14.369999 L 12.55 14.279999 Z M 8.05 14.220001 C 7.99 14.220001 7.96 14.25 7.96 14.310001 C 7.96 14.369999 7.99 14.400002 8.05 14.400002 C 8.09 14.400002 8.11 14.369999 8.11 14.310001 L 8.05 14.220001 Z M 16.27 14.189999 C 16.209999 14.189999 16.18 14.220001 16.18 14.279999 C 16.18 14.34 16.209999 14.369999 16.27 14.369999 C 16.309999 14.369999 16.33 14.34 16.33 14.279999 L 16.27 14.189999 Z M 11.65 15.84 C 11.61 15.84 11.59 15.869999 11.59 15.93 C 11.59 15.990002 11.61 16.02 11.65 16.02 C 11.71 16.02 11.74 15.990002 11.74 15.93 L 11.65 15.84 Z M 13.96 15.27 C 13.92 15.27 13.9 15.299999 13.9 15.360001 C 13.9 15.419998 13.92 15.450001 13.96 15.450001 C 14.02 15.450001 14.05 15.419998 14.05 15.360001 L 13.96 15.27 Z M 7.96 14.639999 C 7.92 14.639999 7.9 14.669998 7.9 14.73 C 7.9 14.790001 7.92 14.82 7.96 14.82 C 8.02 14.82 8.05 14.790001 8.05 14.73 L 7.96 14.639999 Z M 3.13 15.029999 C 3.09 15.029999 3.07 15.060001 3.07 15.119999 C 3.07 15.18 3.1 15.209999 3.16 15.209999 C 3.2 15.209999 3.22 15.18 3.22 15.119999 L 3.13 15.029999 Z M 16.629999 15.779999 C 16.67 15.779999 16.690001 15.82 16.690001 15.900002 C 16.690001 15.939999 16.67 15.959999 16.629999 15.959999 C 16.57 15.959999 16.540001 15.939999 16.540001 15.900002 C 16.540001 15.860001 16.57 15.82 16.629999 15.779999 Z M 4.06 14.580002 L 4.15 14.400002 L 3.88 14.490002 L 4.06 14.580002 Z M 16.030001 15.119999 C 15.99 15.119999 15.97 15.150002 15.97 15.209999 C 15.97 15.27 16 15.299999 16.059999 15.299999 C 16.1 15.299999 16.120001 15.27 16.120001 15.209999 L 16.030001 15.119999 Z M 5.44 14.880001 C 5.4 14.880001 5.38 14.91 5.38 14.970001 C 5.38 15.029999 5.41 15.060001 5.47 15.060001 C 5.51 15.060001 5.53 15.029999 5.53 14.970001 L 5.44 14.880001 Z M 2.71 15.119999 C 2.67 15.119999 2.65 15.150002 2.65 15.209999 C 2.65 15.27 2.67 15.299999 2.71 15.299999 C 2.77 15.299999 2.8 15.27 2.8 15.209999 L 2.71 15.119999 Z M 2.65 15.810001 C 2.61 15.810001 2.59 15.84 2.59 15.900002 C 2.59 15.959999 2.6 15.990002 2.62 15.990002 C 2.7 15.990002 2.74 15.959999 2.74 15.900002 L 2.65 15.810001 Z M 2.08 15.299999 C 2.04 15.299999 2.02 15.34 2.02 15.419998 C 2.02 15.459999 2.05 15.48 2.11 15.48 C 2.15 15.48 2.17 15.450001 2.17 15.389999 L 2.08 15.299999 Z M 12.22 15.330002 C 12.2 15.330002 12.19 15.360001 12.19 15.419998 C 12.19 15.459999 12.21 15.48 12.25 15.48 C 12.31 15.48 12.34 15.459999 12.34 15.419998 C 12.34 15.360001 12.3 15.330002 12.22 15.330002 Z M 15.97 15.150002 C 15.97 15.130001 15.98 15.080002 16 15 C 16.02 14.939999 16.030001 14.889999 16.030001 14.849998 C 16.030001 14.830002 16.02 14.810001 16 14.790001 L 15.94 14.73 L 15.97 15.150002 Z M 13.39 15.630001 C 13.33 15.630001 13.3 15.66 13.3 15.720001 L 13.39 15.810001 C 13.43 15.810001 13.45 15.779999 13.45 15.720001 L 13.39 15.630001 Z M 4.24 14.91 C 4.2 14.91 4.18 14.939999 4.18 15 C 4.18 15.060001 4.21 15.09 4.27 15.09 C 4.29 15.09 4.3 15.060001 4.3 15 L 4.24 14.91 Z M 9.4 15.389999 C 9.36 15.389999 9.34 15.419998 9.34 15.48 C 9.34 15.540001 9.36 15.57 9.4 15.57 C 9.44 15.57 9.46 15.540001 9.46 15.48 L 9.4 15.389999 Z M 9.49 14.279999 C 9.45 14.279999 9.43 14.310001 9.43 14.369999 C 9.43 14.43 9.45 14.459999 9.49 14.459999 C 9.53 14.459999 9.55 14.43 9.55 14.369999 L 9.49 14.279999 Z M 8.92 14.549999 C 8.86 14.549999 8.83 14.57 8.83 14.610001 C 8.83 14.669998 8.86 14.700001 8.92 14.700001 C 8.96 14.700001 8.98 14.68 8.98 14.639999 L 8.92 14.549999 Z M 5.2 14.790001 C 5.16 14.790001 5.14 14.82 5.14 14.880001 C 5.14 14.939999 5.16 14.970001 5.2 14.970001 C 5.24 14.970001 5.26 14.939999 5.26 14.880001 L 5.2 14.790001 Z M 12.07 14.970001 C 12.03 14.970001 12.01 15 12.01 15.060001 C 12.01 15.119999 12.03 15.150002 12.07 15.150002 C 12.11 15.150002 12.13 15.119999 12.13 15.060001 L 12.07 14.970001 Z M 15.22 14.220001 C 15.18 14.220001 15.16 14.25 15.16 14.310001 C 15.16 14.369999 15.18 14.400002 15.22 14.400002 C 15.26 14.400002 15.28 14.369999 15.28 14.310001 L 15.22 14.220001 Z M 16.15 15.389999 C 16.110001 15.389999 16.09 15.419998 16.09 15.48 C 16.09 15.540001 16.110001 15.57 16.15 15.57 C 16.190001 15.57 16.209999 15.540001 16.209999 15.48 L 16.15 15.389999 Z M 7.24 14.07 C 7.28 14.07 7.3 14.099998 7.3 14.16 C 7.3 14.220001 7.28 14.25 7.24 14.25 C 7.2 14.25 7.18 14.220001 7.18 14.16 L 7.24 14.07 Z M 12.88 15.900002 C 12.92 15.900002 12.94 15.93 12.94 15.990002 C 12.94 16.049999 12.92 16.080002 12.88 16.080002 C 12.84 16.080002 12.82 16.049999 12.82 15.990002 L 12.88 15.900002 Z M 3.34 15.599998 C 3.3 15.599998 3.28 15.630001 3.28 15.689999 C 3.28 15.75 3.3 15.779999 3.34 15.779999 C 3.38 15.779999 3.4 15.75 3.4 15.689999 L 3.34 15.599998 Z M 11.14 15.869999 C 11.1 15.869999 11.08 15.900002 11.08 15.959999 C 11.08 16 11.1 16.02 11.14 16.02 C 11.2 16.02 11.23 16 11.23 15.959999 L 11.14 15.869999 Z M 6.88 15.450001 C 6.84 15.450001 6.82 15.48 6.82 15.540001 C 6.82 15.580002 6.84 15.599998 6.88 15.599998 C 6.94 15.599998 6.97 15.580002 6.97 15.540001 L 6.88 15.450001 Z M 3.01 14.369999 C 2.95 14.369999 2.92 14.400002 2.92 14.459999 L 2.95 14.490002 C 2.95 14.509998 2.97 14.52 3.01 14.52 C 3.05 14.52 3.07 14.509998 3.07 14.490002 L 3.07 14.459999 L 3.01 14.369999 Z M 5.95 15.48 C 5.89 15.48 5.86 15.509998 5.86 15.57 C 5.86 15.610001 5.89 15.630001 5.95 15.630001 C 5.99 15.630001 6.01 15.610001 6.01 15.57 L 5.95 15.48 Z M 14.56 14.669998 C 14.5 14.669998 14.47 14.700001 14.47 14.759998 C 14.47 14.799999 14.5 14.82 14.56 14.82 C 14.6 14.82 14.62 14.799999 14.62 14.759998 L 14.56 14.669998 Z M 10.03 15.810001 C 9.97 15.810001 9.94 15.84 9.94 15.900002 C 9.94 15.939999 9.97 15.959999 10.03 15.959999 C 10.07 15.959999 10.09 15.939999 10.09 15.900002 L 10.03 15.810001 Z M 5.68 15.48 C 5.62 15.48 5.59 15.509998 5.59 15.57 C 5.59 15.610001 5.62 15.630001 5.68 15.630001 C 5.72 15.630001 5.74 15.610001 5.74 15.57 L 5.68 15.48 Z M 14.23 15.360001 C 14.19 15.360001 14.17 15.389999 14.17 15.450001 L 14.2 15.509998 C 14.28 15.509998 14.32 15.48 14.32 15.419998 L 14.23 15.360001 Z M 1.78 15.84 C 1.74 15.84 1.72 15.869999 1.72 15.93 C 1.72 15.970001 1.74 15.990002 1.78 15.990002 C 1.84 15.990002 1.87 15.970001 1.87 15.93 L 1.78 15.84 Z M 1.99 15.060001 C 1.95 15.060001 1.93 15.09 1.93 15.150002 C 1.93 15.189999 1.95 15.209999 1.99 15.209999 C 2.05 15.209999 2.08 15.189999 2.08 15.150002 L 1.99 15.060001 Z M 5.68 14.549999 C 5.64 14.549999 5.62 14.57 5.62 14.610001 C 5.62 14.669998 5.65 14.700001 5.71 14.700001 C 5.75 14.700001 5.77 14.68 5.77 14.639999 L 5.68 14.549999 Z M 16.360001 15.900002 C 16.4 15.900002 16.42 15.93 16.42 15.990002 C 16.42 16.029999 16.4 16.049999 16.360001 16.049999 C 16.299999 16.049999 16.27 16.029999 16.27 15.990002 L 16.360001 15.900002 Z M 15.1 15.060001 C 15.06 15.060001 15.04 15.099998 15.04 15.18 C 15.04 15.220001 15.06 15.240002 15.1 15.240002 C 15.14 15.240002 15.16 15.220001 15.16 15.18 L 15.1 15.060001 Z M 15.52 14.790001 C 15.48 14.790001 15.46 14.82 15.46 14.880001 C 15.46 14.939999 15.49 14.970001 15.55 14.970001 L 15.58 14.939999 L 15.52 14.790001 Z M 1.72 14.400002 C 1.66 14.400002 1.63 14.419998 1.63 14.459999 C 1.63 14.52 1.66 14.549999 1.72 14.549999 C 1.76 14.549999 1.76 14.5 1.72 14.400002 Z M 13.09 15.029999 C 13.05 15.07 13.03 15.110001 13.03 15.150002 C 13.03 15.189999 13.05 15.209999 13.09 15.209999 C 13.13 15.209999 13.15 15.18 13.15 15.119999 L 13.09 15.029999 Z M 14.62 15.959999 C 14.56 15.959999 14.53 15.98 14.53 16.02 C 14.53 16.080002 14.57 16.110001 14.65 16.110001 C 14.67 16.110001 14.66 16.060001 14.62 15.959999 Z M 15.7 15.57 C 15.68 15.57 15.67 15.599998 15.67 15.66 C 15.67 15.720001 15.69 15.75 15.73 15.75 C 15.77 15.75 15.79 15.73 15.79 15.689999 L 15.7 15.57 Z M 5.23 15.509998 C 5.19 15.509998 5.17 15.540001 5.17 15.599998 L 5.23 15.66 C 5.25 15.66 5.27 15.650002 5.29 15.630001 L 5.32 15.599998 L 5.23 15.509998 Z M 0.58 14.43 C 0.56 14.43 0.55 14.450001 0.55 14.490002 C 0.55 14.549999 0.56 14.580002 0.58 14.580002 C 0.64 14.580002 0.67 14.549999 0.67 14.490002 L 0.58 14.43 Z M 9.25 14.459999 C 9.21 14.459999 9.19 14.490002 9.19 14.549999 C 9.19 14.59 9.22 14.610001 9.28 14.610001 C 9.3 14.610001 9.31 14.59 9.31 14.549999 L 9.25 14.459999 Z M 15.91 15.66 C 15.87 15.66 15.85 15.689999 15.85 15.75 C 15.85 15.790001 15.87 15.810001 15.91 15.810001 C 15.95 15.810001 15.97 15.790001 15.97 15.75 L 15.91 15.66 Z M 15.25 15 C 15.21 15 15.19 15.029999 15.19 15.09 C 15.19 15.130001 15.21 15.150002 15.25 15.150002 C 15.29 15.150002 15.31 15.130001 15.31 15.09 L 15.25 15 Z M 14.38 14.669998 C 14.34 14.669998 14.32 14.700001 14.32 14.759998 C 14.32 14.799999 14.34 14.82 14.38 14.82 C 14.42 14.82 14.44 14.799999 14.44 14.759998 L 14.38 14.669998 Z M 16.42 15.389999 L 16.6 15.27 L 16.48 15.209999 L 16.42 15.389999 Z M 14.2 14.669998 C 14.16 14.669998 14.14 14.700001 14.14 14.759998 C 14.14 14.799999 14.16 14.82 14.2 14.82 C 14.24 14.82 14.26 14.799999 14.26 14.759998 L 14.2 14.669998 Z M 13.54 15.720001 C 13.52 15.720001 13.51 15.75 13.51 15.810001 C 13.51 15.849998 13.53 15.869999 13.57 15.869999 C 13.61 15.869999 13.63 15.849998 13.63 15.810001 L 13.54 15.720001 Z M 14.11 14.43 C 14.05 14.43 14.02 14.450001 14.02 14.490002 L 14.11 14.580002 C 14.15 14.580002 14.15 14.529999 14.11 14.43 Z M 9.67 14.459999 C 9.63 14.459999 9.61 14.48 9.61 14.52 C 9.61 14.580002 9.64 14.610001 9.7 14.610001 C 9.72 14.610001 9.71 14.560001 9.67 14.459999 Z M 8.32 15.84 L 8.35 15.93 L 8.32 15.990002 C 8.26 15.990002 8.23 15.970001 8.23 15.93 L 8.32 15.84 Z M 9.49 15.57 C 9.45 15.57 9.43 15.59 9.43 15.630001 C 9.43 15.689999 9.45 15.720001 9.49 15.720001 C 9.53 15.720001 9.53 15.669998 9.49 15.57 Z M 5.14 15.150002 C 5.1 15.150002 5.08 15.169998 5.08 15.209999 C 5.08 15.27 5.1 15.299999 5.14 15.299999 C 5.18 15.299999 5.18 15.25 5.14 15.150002 Z M 3.85 15.540001 L 3.85 15.509998 C 3.85 15.490002 3.82 15.48 3.76 15.48 C 3.72 15.48 3.7 15.5 3.7 15.540001 C 3.7 15.560001 3.72 15.57 3.76 15.57 L 3.85 15.540001 Z M 14.23 15.029999 C 14.19 15.029999 14.17 15.060001 14.17 15.119999 C 14.17 15.16 14.19 15.18 14.23 15.18 C 14.27 15.18 14.27 15.130001 14.23 15.029999 Z M 13.81 15.689999 L 13.78 15.810001 C 13.78 15.849998 13.79 15.869999 13.81 15.869999 C 13.85 15.869999 13.87 15.84 13.87 15.779999 L 13.81 15.689999 Z M 10.18 15.389999 C 10.14 15.389999 10.12 15.419998 10.12 15.48 C 10.12 15.52 10.14 15.540001 10.18 15.540001 C 10.22 15.540001 10.22 15.490002 10.18 15.389999 Z M 4 14.759998 C 3.96 14.759998 3.94 14.779999 3.94 14.82 C 3.94 14.880001 3.96 14.91 4 14.91 C 4.04 14.91 4.04 14.860001 4 14.759998 Z M 13.75 14.43 C 13.71 14.43 13.69 14.450001 13.69 14.490002 C 13.73 14.57 13.75 14.599998 13.75 14.580002 C 13.79 14.580002 13.79 14.529999 13.75 14.43 Z M 4.6 14.400002 C 4.56 14.400002 4.54 14.43 4.54 14.490002 C 4.54 14.549999 4.56 14.580002 4.6 14.580002 L 4.6 14.400002 Z M 12.37 15.57 C 12.33 15.57 12.31 15.599998 12.31 15.66 C 12.31 15.720001 12.33 15.75 12.37 15.75 L 12.37 15.57 Z M 13.75 14.669998 C 13.73 14.669998 13.72 14.700001 13.72 14.759998 C 13.72 14.799999 13.73 14.82 13.75 14.82 C 13.79 14.82 13.81 14.799999 13.81 14.759998 L 13.75 14.669998 Z M 16.9 15.029999 L 16.99 14.849998 L 16.9 14.849998 L 16.9 15.029999 Z M 7.54 15.09 L 7.51 15.18 L 7.54 15.240002 C 7.58 15.240002 7.6 15.220001 7.6 15.18 L 7.54 15.09 Z M 12.07 15.66 L 12.04 15.689999 C 12.04 15.709999 12.05 15.73 12.07 15.75 L 12.07 15.84 C 12.11 15.84 12.13 15.82 12.13 15.779999 C 12.11 15.759998 12.09 15.720001 12.07 15.66 Z M 14.89 14.610001 C 14.89 14.669998 14.92 14.709999 14.98 14.73 C 15 14.709999 15.01 14.689999 15.01 14.669998 L 14.89 14.610001 Z M 7.54 14.669998 L 7.6 14.580002 L 7.51 14.490002 L 7.54 14.669998 Z M 10.06 14.610001 C 10 14.59 9.96 14.560001 9.94 14.52 L 9.97 14.669998 L 10.06 14.610001 Z M 3.4 15.09 L 3.46 14.970001 L 3.37 14.939999 L 3.4 15.09 Z M 9.04 15.299999 C 9 15.299999 8.98 15.32 8.98 15.360001 L 9.04 15.419998 L 9.04 15.299999 Z M 8.77 15.299999 C 8.77 15.34 8.78 15.389999 8.8 15.450001 C 8.84 15.509998 8.87 15.549999 8.89 15.57 L 8.77 15.299999 Z M 15.16 14.549999 C 15.12 14.549999 15.1 14.57 15.1 14.610001 C 15.12 14.630001 15.14 14.639999 15.16 14.639999 L 15.16 14.549999 Z M 16 14.369999 L 15.97 14.310001 L 15.91 14.369999 C 15.91 14.389999 15.94 14.389999 16 14.369999 Z M 16.48 14.52 C 16.459999 14.5 16.440001 14.490002 16.42 14.490002 L 16.389999 14.580002 L 16.48 14.52 Z M 5.77 14.279999 L 5.74 14.310001 C 5.74 14.349998 5.75 14.369999 5.77 14.369999 C 5.81 14.369999 5.81 14.34 5.77 14.279999 Z M 14.59 15.599998 L 14.56 15.630001 C 14.56 15.669998 14.57 15.689999 14.59 15.689999 C 14.61 15.689999 14.61 15.66 14.59 15.599998 Z M 7.21 15.27 L 7.18 15.299999 C 7.18 15.34 7.19 15.360001 7.21 15.360001 C 7.23 15.360001 7.23 15.330002 7.21 15.27 Z M 15.67 15.119999 L 15.67 15.029999 L 15.61 15.029999 L 15.67 15.119999 Z M 13.42 14.849998 L 13.39 14.880001 C 13.39 14.919998 13.41 14.939999 13.45 14.939999 L 13.42 14.849998 Z M 11.29 15.360001 C 11.29 15.32 11.27 15.299999 11.23 15.299999 L 11.2 15.330002 L 11.29 15.360001 Z M 3.79 14.790001 L 3.79 14.73 C 3.75 14.73 3.73 14.740002 3.73 14.759998 L 3.79 14.790001 Z M 11.23 15.509998 C 11.19 15.509998 11.17 15.540001 11.17 15.599998 L 11.23 15.509998 Z M 0.85 14.459999 C 0.83 14.48 0.82 14.5 0.82 14.52 C 0.82 14.560001 0.83 14.580002 0.85 14.580002 L 0.85 14.459999 Z M 14.02 14.759998 L 13.99 14.73 C 13.95 14.73 13.93 14.740002 13.93 14.759998 L 14.02 14.759998 Z M 6.13 14.43 L 6.1 14.400002 L 6.04 14.459999 L 6.13 14.43 Z M 12.55 14.700001 C 12.51 14.740002 12.49 14.77 12.49 14.790001 L 12.55 14.700001 Z M 10.18 15.599998 C 10.16 15.619999 10.15 15.639999 10.15 15.66 L 10.15 15.720001 L 10.18 15.599998 Z M 2.8 15.029999 C 2.8 15.009998 2.77 15 2.71 15 L 2.8 15.029999 Z M 1.39 14.880001 L 1.3 14.880001 C 1.3 14.919998 1.33 14.919998 1.39 14.880001 Z M 7.87 14.91 C 7.85 14.93 7.84 14.959999 7.84 15 L 7.87 14.91 Z M 5.68 14.880001 C 5.66 14.900002 5.65 14.93 5.65 14.970001 L 5.68 14.880001 Z M 4 15.959999 L 3.97 15.959999 C 3.93 15.959999 3.91 15.950001 3.91 15.93 L 4 15.959999 Z M 5.89 14.700001 C 5.87 14.700001 5.86 14.720001 5.86 14.759998 L 5.89 14.700001 Z M 13.21 15.360001 C 13.19 15.34 13.17 15.330002 13.15 15.330002 L 13.21 15.360001 Z M 2.71 14.790001 C 2.67 14.790001 2.65 14.799999 2.65 14.82 L 2.71 14.790001 Z M 7.06 15.779999 L 7.03 15.75 C 6.99 15.75 7 15.759998 7.06 15.779999 Z"/>
</svg>
